<svg xml:space="preserve" style="max-height: 500px" viewBox="254.296812 376.244748 621.5880000000001 439.824" y="0px" x="0px" xmlns:xlink="http://www.w3.org/1999/xlink" xmlns="http://www.w3.org/2000/svg" version="1.1" width="621.5880000000001" height="439.824">
<g id="BG">
	<rect height="1122" width="1122" style="fill:#FFFDF8;"/>
</g>
<g id="Object">
	<g>
		<path d="M723.013,756.715c-3.269-6.893-12.199-8.786-19.048-8.981&#10;&#9;&#9;&#9;c-38.225-1.095-76.474-1.222-114.705-0.333c-24.881,0.58-49.695,1.829-74.507,3.271c-7.108-0.549-14.243-0.97-21.414-1.247&#10;&#9;&#9;&#9;c-33.654-1.304-67.361,0.177-100.823,3.935c-9.519,1.069-19.016,2.329-28.484,3.777c-4.869,0.745-9.732,1.519-14.602,2.256&#10;&#9;&#9;&#9;c-5.889,0.892-11.232,0.914-13.678,7.035c-2.77,6.933,8.948,15.529,14.228,16.402c94.515,15.633,191.842,11.164,286.408-1.533&#10;&#9;&#9;&#9;c26.035-3.496,51.977-7.652,77.834-12.277C720.051,767.978,725.986,762.985,723.013,756.715z" style="fill:#EBE3CF;"/>
		<g>
			<g>
				<path d="M816.686,591.917c-3.761-1.19-7.523-2.38-11.283-3.572c0.732-0.569,1.12-1.167,0.117-1.833&#10;&#9;&#9;&#9;&#9;&#9;c-0.677-0.449-1.374-0.869-2.062-1.301c-1.955-0.711-2.151-2.232-1.147-3.625c2.211-3.067,1.352-6.197,0.603-9.364&#10;&#9;&#9;&#9;&#9;&#9;c-0.708-2.992-2.243-5.607-3.727-8.272c-2.071-3.719-1.688-4.55,2.476-7.021c4.52,0.89,8.433,3.157,12.32,5.467&#10;&#9;&#9;&#9;&#9;&#9;c2.03,1.207,3.941,2.643,6.36,3.02l-0.117-0.07c0.772,1.159,2.014,1.244,3.221,1.409c2.094,0.064,3.607,1.383,5.227,2.448&#10;&#9;&#9;&#9;&#9;&#9;c3.628,2.386,7.321,4.684,10.827,7.239c2.884,2.101,5.786,3.76,9.519,3.657c0.989-0.027,2,0.759,3.001,1.171&#10;&#9;&#9;&#9;&#9;&#9;c0,1.323,0,2.645,0,3.968c-0.31,0.129-0.836,0.199-0.89,0.397c-0.182,0.669,0.161,1.03,0.89,0.925c0,0.882,0,1.764,0,2.645&#10;&#9;&#9;&#9;&#9;&#9;c-1.272,0.52-2.091,1.501-2.699,2.683c-0.719,1.398-1.711,2.487-3.247,2.992c0.162,0.551-0.059,0.836-0.617,0.886l-0.073,0.061&#10;&#9;&#9;&#9;&#9;&#9;c-6.676,1.615-13.313,1.95-19.863-0.6C822.977,593.056,820.009,592.013,816.686,591.917z" style="fill:#EAE0D8;"/>
				<path d="M852.02,586.561c-0.729,0.104-1.072-0.256-0.89-0.925c0.054-0.198,0.58-0.268,0.89-0.397&#10;&#9;&#9;&#9;&#9;&#9;C852.02,585.679,852.02,586.12,852.02,586.561z" style="fill:#A0948C;"/>
				<path d="M801.664,556.93c-4.164,2.471-4.547,3.302-2.476,7.021c1.484,2.665,3.019,5.28,3.727,8.272&#10;&#9;&#9;&#9;&#9;&#9;c0.749,3.167,1.607,6.297-0.603,9.364c-1.004,1.392-0.808,2.913,1.146,3.625c-0.311,1.731-1.853,1.426-2.981,1.805&#10;&#9;&#9;&#9;&#9;&#9;c-3.289-0.574-6.276-1.739-9.054-3.709c-8.709-6.175-18.418-10.351-28.654-13.136c-11.458-3.118-23.125-5.361-34.804-7.539&#10;&#9;&#9;&#9;&#9;&#9;c-8.291-1.547-16.199,0.216-24.128,2.042c-2.988,0.688-5.851,1.901-8.797,2.789c-7.765,2.341-15.466,4.995-23.529,4.897&#10;&#9;&#9;&#9;&#9;&#9;c-0.613,1.177-0.526,2.009-0.019,2.8c4.514,7.036,6.461,14.89,7.144,23.089c0.186,2.236,1.072,3.711,2.929,4.766&#10;&#9;&#9;&#9;&#9;&#9;c3.252,1.847,6.449,3.795,9.751,5.548c17.633,9.362,33.172,21.56,47.714,35.116c5.307,4.947,10.436,10.097,16.368,14.329&#10;&#9;&#9;&#9;&#9;&#9;c-0.935,1.788-2.776,0.718-4.105,1.295c-1.512,0.656-2.255,2.145-1.791,3.719c0.64,2.172,2.009,3.861,3.573,5.408&#10;&#9;&#9;&#9;&#9;&#9;c2.172,2.148,4.401,4.238,6.562,6.397c0.238,0.238,0.34,0.818,0.227,1.143c-0.11,0.317-0.56,0.7-0.889,0.729&#10;&#9;&#9;&#9;&#9;&#9;c-3.078,0.272-6.086-0.292-9.085-0.886c-1.727-0.342-3.804-0.993-5.067,0.221c-2.813,2.705-5.149,1.107-7.656-0.207&#10;&#9;&#9;&#9;&#9;&#9;c-1.161-0.608-2.31-1.24-3.49-1.808c-3.023-1.456-3.029-1.444-5.975,1.39c-0.807-0.35-1.632-0.663-2.418-1.055&#10;&#9;&#9;&#9;&#9;&#9;c-7.814-3.896-15.805-4.55-24.328-2.329c-8.61,2.244-17.443,2.367-26.092-0.091c-4.413-1.254-7.627,0.047-10.561,3.303&#10;&#9;&#9;&#9;&#9;&#9;c-3.537,3.925-6.979,7.882-9.883,12.33c-9.758,14.945-24.2,23.293-40.834,28.28c-4.69,1.406-9.63,0.663-14.406-0.201&#10;&#9;&#9;&#9;&#9;&#9;c-7.619-1.378-14.881-3.736-21.523-7.89c-7.453-4.662-15.026-9.132-22.555-13.672c-2.441-1.472-4.906-2.903-7.36-4.352&#10;&#9;&#9;&#9;&#9;&#9;c-0.435-0.414-0.87-0.828-1.305-1.243l-0.024-0.044c0.086-0.645,0.48-1.497,0.208-1.903c-2.456-3.664-1.565-7.378-0.599-11.246&#10;&#9;&#9;&#9;&#9;&#9;c1.089-4.362,0.404-8.591-1.615-12.674c-1.564-3.164-3.727-5.859-5.882-8.588c0.493-0.488,0.986-0.976,1.479-1.464&#10;&#9;&#9;&#9;&#9;&#9;c13.112,10.564,28.077,18.186,42.488,26.676c7.11,4.189,14.773,6.68,23.153,7.034c7.198,0.305,13.438-1.775,19.052-6.123&#10;&#9;&#9;&#9;&#9;&#9;c2.162-1.674,3.643-3.713,4.287-6.448c1.534-6.511,2.11-13.054,0.819-19.65c-0.331-1.693-0.979-3.423-1.887-4.885&#10;&#9;&#9;&#9;&#9;&#9;c-1.903-3.064-5.996-5.209-9.693-3.691c-2.025,0.831-4.193,1.328-6.317,1.899c-5.029,1.352-10.099,0.734-15.092-0.067&#10;&#9;&#9;&#9;&#9;&#9;c-11.305-1.814-22.534-3.986-33.585-7.083c-10.845-3.04-20.08-8.891-28.849-15.655c-4.369-3.37-8.872-6.458-13.79-9.035&#10;&#9;&#9;&#9;&#9;&#9;c-6.733-3.527-13.795-5.807-21.278-6.779c-8.105-1.053-16.037-2.853-23.843-5.206c-2.994-0.903-5.982-1.355-9.098-1.356&#10;&#9;&#9;&#9;&#9;&#9;c-3.966-0.001-7.932-0.17-11.897-0.279c-8.484-0.234-16.477-2.681-24.395-5.447c-11.848-4.139-23.713-8.229-35.533-12.445&#10;&#9;&#9;&#9;&#9;&#9;c-10.834-3.865-19.866-10.396-27.216-19.192c-3.569-4.271-5.751-9.35-7.648-14.553c-1.236-3.391-1.738-3.766-5.312-3.461&#10;&#9;&#9;&#9;&#9;&#9;c-2.394,0.205-4.794,0.677-7.119,1.297c-7.681,2.049-14.458,0.027-20.396-4.789c-7.538-6.113-14.495-12.885-21.023-20.073&#10;&#9;&#9;&#9;&#9;&#9;c-3.453-3.802-5.844-8.348-7.657-13.059c-2.798-7.27-7.53-12.858-13.561-17.532c-4.376-3.391-8.303-7.236-11.706-11.609&#10;&#9;&#9;&#9;&#9;&#9;c-1.755-2.256-3.973-4.465-2.244-7.649c1.464-2.697,4.177-2.892,6.893-2.985c10.028-0.345,19.728,1.346,29.19,4.584&#10;&#9;&#9;&#9;&#9;&#9;c0.834,0.285,1.706,0.499,2.487,0.893c1.865,0.942,3.475,0.247,4.925-0.808c1.053-0.766,2.012-1.738,2.8-2.779&#10;&#9;&#9;&#9;&#9;&#9;c4.161-5.497,9.101-10.168,14.682-14.191c0.891-0.642,1.68-1.424,2.52-2.136c1.132-0.959,1.342-2.103,1.001-3.544&#10;&#9;&#9;&#9;&#9;&#9;c-0.861-3.64-1.694-7.292-2.357-10.972c-1.292-7.167-2.122-14.383-1.941-21.691c0.094-3.792,0.739-7.465,2.235-10.939&#10;&#9;&#9;&#9;&#9;&#9;c1.489-3.457,3.991-4.386,7.522-2.901c1.213,0.51,2.365,1.182,3.507,1.844c11.628,6.738,23.423,13.208,34.82,20.316&#10;&#9;&#9;&#9;&#9;&#9;c11.429,7.129,22.008,15.447,30.962,25.633c2.179,2.479,4.338,5.005,6.223,7.707c3.323,4.763,10.209,5.842,16.124,3.577&#10;&#9;&#9;&#9;&#9;&#9;c1.868-0.716,3.712-1.27,5.669-1.649c8.93-1.73,17.918-2.537,26.949-1.233c4.528,0.654,8.734,0.192,12.82-1.762&#10;&#9;&#9;&#9;&#9;&#9;c1.041,0.265,1.865-0.185,2.638-0.801c1.332,0.029,2.663,0.059,3.995,0.088c1.163,0.912,1.388,2.198,1.358,3.551&#10;&#9;&#9;&#9;&#9;&#9;c-0.071,3.12,0.709,6.112,1.348,9.12c0.461,2.174,1.228,4.332,2.814,5.894c4.956,4.879,10.508,8.809,17.784,9.101&#10;&#9;&#9;&#9;&#9;&#9;c4.172,0.167,8.367,0.088,12.537-0.141c3-0.165,4.379-1.984,3.878-4.898c-0.647-3.765-2.111-7.163-5.271-9.586&#10;&#9;&#9;&#9;&#9;&#9;c-0.02-0.505-0.04-1.011-0.06-1.517c9.881,0.955,19.22,3.88,26.331,10.855c7.561,7.417,16.936,9.844,26.602,11.938&#10;&#9;&#9;&#9;&#9;&#9;c7.557,1.637,15.247,1.992,22.982,1.393c10.603-0.82,21.081,0.728,31.568,1.907c4.146,0.466,8.257,1.243,12.383,1.888&#10;&#9;&#9;&#9;&#9;&#9;c0.868,0.136,1.817,0.131,2.583,0.496c7.263,3.464,15.374,3.444,22.953,5.652c7.592,2.211,15.318,3.981,23.026,5.769&#10;&#9;&#9;&#9;&#9;&#9;c2.772,0.643,5.653,0.878,8.5,1.123c7.553,0.649,14.677,2.65,21.329,6.332c5.411,2.995,11.239,5.042,17.067,6.994&#10;&#9;&#9;&#9;&#9;&#9;c7.918,2.651,15.923,5.058,23.947,7.373c7.853,2.266,15.415,5.235,22.626,9.039c7.972,4.205,15.83,8.627,23.738,12.955&#10;&#9;&#9;&#9;&#9;&#9;C803.904,556.174,802.377,556.016,801.664,556.93z M405.204,546.945c-0.112,3.078-0.486,6.174-0.287,9.232&#10;&#9;&#9;&#9;&#9;&#9;c0.608,9.36,7.537,16.309,16.872,17.146c2.192,0.197,4.398,0.234,6.595,0.387c2.18,0.151,3.886-0.453,4.781-2.643&#10;&#9;&#9;&#9;&#9;&#9;c1.29-3.161,3.694-5.414,6.208-7.598c1.321-1.147,2.716-2.333,3.643-3.78c1.122-1.751,2.593-2.235,4.446-2.212&#10;&#9;&#9;&#9;&#9;&#9;c1.101,0.014,2.203,0.112,3.302,0.087c1.287-0.029,2.73,0.142,3.216-1.549c0.388-1.349-0.844-2.556-2.908-2.714&#10;&#9;&#9;&#9;&#9;&#9;c-1.533-0.118-3.088,0.039-4.617-0.102c-1.092-0.101-2.435,0.839-3.569-1.035c7.096,0.594,13.86-0.055,20.677,0.759&#10;&#9;&#9;&#9;&#9;&#9;c6.258,0.747,12.581,1.773,18.976,0.439c3.668-0.765,6.937,0.359,9.351,3.541c0.914,1.204,2.279,2.054,3.327,3.17&#10;&#9;&#9;&#9;&#9;&#9;c5.514,5.867,9.02,12.379,6.992,20.84c-0.778,3.247,0.798,5.683,3.825,6.662c0.624,0.202,1.287,0.291,1.938,0.393&#10;&#9;&#9;&#9;&#9;&#9;c8.042,1.257,16.088,2.486,24.126,3.764c8.602,1.368,17.001,1.068,25.399-1.717c8.495-2.817,17.306-2.849,26.129-1.433&#10;&#9;&#9;&#9;&#9;&#9;c9.695,1.556,19.32,0.976,28.828-1.336c2.11-0.513,4.182-1.411,6.092-2.459c2.528-1.388,3.581-3.709,3.445-6.643&#10;&#9;&#9;&#9;&#9;&#9;c-0.068-1.475-1.462-2.806-0.409-4.478c0.943-0.362,1.941-0.81,2.979-1.131c4.168-1.288,6.445-4.148,5.304-8.438&#10;&#9;&#9;&#9;&#9;&#9;c-0.498-1.874-0.044-3.425,0.915-4.999c1.927-3.163,1.276-6.381-0.087-9.502c-2.345-5.368-5.831-9.849-10.797-13.047&#10;&#9;&#9;&#9;&#9;&#9;c-2.405-1.549-4.901-2.959-7.387-4.378c-7.071-4.034-14.466-7.591-21.146-12.19c-5.979-4.117-12.448-6.418-19.288-8.198&#10;&#9;&#9;&#9;&#9;&#9;c-4.259-1.108-8.488-2.335-12.711-3.572c-6.975-2.044-14.026-3.828-21.202-4.91c-8.733-1.317-17.318-3.224-25.694-5.941&#10;&#9;&#9;&#9;&#9;&#9;c-6.569-2.131-13.311-3.012-20.109-3.343c-5.963-0.29-11.804-1.143-17.649-2.223c-3.89-0.719-7.802-1.464-11.736-1.743&#10;&#9;&#9;&#9;&#9;&#9;c-2.897-0.206-5.714-0.666-8.404-1.577c-5.527-1.872-11.105-2.386-16.865-1.576c-1.954,0.275-3.979,0.516-5.921,0.307&#10;&#9;&#9;&#9;&#9;&#9;c-6.581-0.708-13.121,0.385-19.635,0.684c-8.769,0.402-17.476,2.338-24.816,7.922c-2.294,1.745-4.899,2.886-7.704,3.673&#10;&#9;&#9;&#9;&#9;&#9;c-1.799,0.505-3.291,0.792-4.891-0.574c-2.5-2.133-5.61-2.898-8.687-2.023c-3.697,1.051-6.389-0.177-8.99-2.544&#10;&#9;&#9;&#9;&#9;&#9;c-1.787-1.627-3.717-3.099-5.61-4.607c-0.855-0.681-1.722-1.378-2.68-1.889c-1.017-0.542-2.125-0.479-3.132,0.178&#10;&#9;&#9;&#9;&#9;&#9;c-1.233,0.805-1.789,2.006-1.502,3.394c0.216,1.044,0.703,2.072,1.253,2.998c1.348,2.272,2.782,4.494,4.219,6.711&#10;&#9;&#9;&#9;&#9;&#9;c0.784,1.209,0.982,2.357,0.201,3.678c-1.481,2.505-2.02,5.356-2.644,8.137c-0.847,3.777,0.15,6.978,3.553,9.177&#10;&#9;&#9;&#9;&#9;&#9;c0.37,0.239,0.721,0.524,1.118,0.702c2.692,1.201,3.922,3.378,4.269,6.201c0.294,2.4,0.751,4.783,0.959,7.188&#10;&#9;&#9;&#9;&#9;&#9;c0.232,2.678,1.115,5.161,2.024,7.636c0.454,1.238,1.298,2.208,2.47,2.984c9.368,6.201,19.222,7.292,29.435,2.526&#10;&#9;&#9;&#9;&#9;&#9;c2.656-1.24,4.929-2.498,7.968-1.356c1.487,0.559,2.893-0.805,4.352-1.245C403.944,546.819,404.574,546.882,405.204,546.945z&#10;&#9;&#9;&#9;&#9;&#9; M336.403,421.048c0.484,3.973,0.771,7.695,1.427,11.352c0.774,4.312,1.935,8.55,3.926,12.496&#10;&#9;&#9;&#9;&#9;&#9;c1.018,2.018,1.983,2.392,4.276,1.717c1.041-0.306,2.203-0.522,3.043-1.142c4.583-3.376,9.158-6.772,13.577-10.357&#10;&#9;&#9;&#9;&#9;&#9;c2.056-1.668,2.125-3.776,0.374-5.772c-5.763-6.57-12.962-11.064-21.106-14.068c-2.307-0.851-4.362,0.383-5.035,2.813&#10;&#9;&#9;&#9;&#9;&#9;C336.596,419.131,336.529,420.235,336.403,421.048z M308.068,484.629c-0.318-0.468-0.676-1.311-1.301-1.834&#10;&#9;&#9;&#9;&#9;&#9;c-0.826-0.69-1.817-1.234-2.814-1.66c-7.906-3.38-16.317-4.901-24.674-6.606c-0.889-0.181-1.72,0.143-2.262,0.955&#10;&#9;&#9;&#9;&#9;&#9;c-0.545,0.817-0.464,1.732-0.065,2.502c1.135,2.189,3.035,3.706,4.899,5.235c5.917,4.854,11.837,9.704,17.76,14.552&#10;&#9;&#9;&#9;&#9;&#9;c0.937,0.767,2.407,0.713,2.887-0.251c1.85-3.718,3.617-7.478,5.38-11.239C308.051,485.913,307.984,485.43,308.068,484.629z&#10;&#9;&#9;&#9;&#9;&#9; M327.018,515.048c1.51-0.063,2.658-1.387,2.694-3.106c0.042-2.005-1.363-3.453-3.178-3.277&#10;&#9;&#9;&#9;&#9;&#9;c-1.846,0.179-3.365,1.804-3.215,3.44C323.476,513.809,325.131,515.126,327.018,515.048z M374.58,481.027&#10;&#9;&#9;&#9;&#9;&#9;c1.681,0.173,3.211-1.235,3.384-3.117c0.134-1.461-1-2.93-2.516-3.259c-1.715-0.373-3.352,0.874-3.627,2.762&#10;&#9;&#9;&#9;&#9;&#9;C371.546,479.298,372.718,480.835,374.58,481.027z" style="fill:#74665C;"/>
				<path d="M538.522,654.035c2.155,2.728,4.318,5.424,5.882,8.588c2.019,4.082,2.704,8.312,1.615,12.674&#10;&#9;&#9;&#9;&#9;&#9;c-0.966,3.868-1.857,7.582,0.599,11.246c0.272,0.406-0.122,1.258-0.208,1.903c-2.207-0.539-4.431-1.023-6.61-1.657&#10;&#9;&#9;&#9;&#9;&#9;c-0.522-0.152-0.897-0.805-1.339-1.228c-1.131-0.622-2.204-1.405-3.403-1.84c-6.725-2.437-13.475-4.798-19.893-8.008&#10;&#9;&#9;&#9;&#9;&#9;c-0.915-0.457-2.099-0.376-3.158-0.544l0.122,0.083c-0.392-0.444-0.784-0.888-1.176-1.332&#10;&#9;&#9;&#9;&#9;&#9;c-5.919-2.921-9.774-7.579-11.767-13.851c-0.388-1.222-1.039-2.36-1.569-3.537c1.852-0.897,1.805-2.855,2.355-4.42&#10;&#9;&#9;&#9;&#9;&#9;c1.875-5.34,4.673-9.784,10.317-11.853c0.974-0.357,1.772-1.196,2.651-1.812c2.652-0.767,4.865,0.365,7.049,1.628&#10;&#9;&#9;&#9;&#9;&#9;c0.329,0.553,0.524,1.371,1.008,1.618C527.435,644.968,532.973,649.506,538.522,654.035z" style="fill:#E8DED6;"/>
				<path d="M727.701,675.409c2.947-2.835,2.952-2.846,5.975-1.39c1.18,0.568,2.33,1.2,3.49,1.808&#10;&#9;&#9;&#9;&#9;&#9;c2.507,1.314,4.843,2.911,7.656,0.207c1.263-1.214,3.34-0.563,5.067-0.221c2.999,0.594,6.007,1.158,9.085,0.886&#10;&#9;&#9;&#9;&#9;&#9;c0.329-0.029,0.779-0.412,0.889-0.729c0.113-0.325,0.012-0.905-0.227-1.143c-2.161-2.159-4.391-4.248-6.562-6.397&#10;&#9;&#9;&#9;&#9;&#9;c-1.563-1.546-2.933-3.236-3.573-5.408c-0.464-1.573,0.279-3.063,1.791-3.719c1.329-0.576,3.17,0.494,4.105-1.295&#10;&#9;&#9;&#9;&#9;&#9;c3.089,1.184,5.72,3.051,8.035,5.388c0.453,0.416,0.906,0.832,1.358,1.248l-0.116-0.11c0.576,0.627,1.052,1.405,1.743,1.858&#10;&#9;&#9;&#9;&#9;&#9;c6.873,4.503,14.149,8.145,22.179,10.123l-0.11-0.058c0.816,0.438,1.631,0.876,2.446,1.315c2.865,0.134,5.079,1.826,7.406,3.193&#10;&#9;&#9;&#9;&#9;&#9;c0.415,0.244,0.482,1.081,0.71,1.648c0.695,2.061,1.347,4.134,2.097,6.171c0.852,2.312,1.006,4.678,0.62,7.07&#10;&#9;&#9;&#9;&#9;&#9;c-0.535,3.323-2.82,5.173-5.987,4.294c-4.048-1.124-8.19-0.972-12.267-1.557c-4.79-1.642-9.752-2.573-14.702-3.551&#10;&#9;&#9;&#9;&#9;&#9;c-1.638,0.146-2.923-0.776-4.278-1.449c-6.063-3.01-12.084-6.105-18.178-9.049c-5.473-2.644-11.029-5.118-16.529-7.706&#10;&#9;&#9;&#9;&#9;&#9;C729.063,676.476,728.407,675.89,727.701,675.409z" style="fill:#E8DED6;"/>
				<path d="M518.771,472.7c3.16,2.423,4.624,5.82,5.271,9.586c0.501,2.915-0.878,4.733-3.878,4.898&#10;&#9;&#9;&#9;&#9;&#9;c-4.17,0.229-8.365,0.309-12.537,0.141c-7.276-0.292-12.828-4.222-17.784-9.101c-1.586-1.562-2.353-3.72-2.814-5.894&#10;&#9;&#9;&#9;&#9;&#9;c-0.638-3.008-1.419-6.001-1.348-9.12c0.031-1.353-0.195-2.639-1.358-3.551c-0.237-4.044,2.572-6.845,4.243-10.079&#10;&#9;&#9;&#9;&#9;&#9;c0.859-1.663,2.788-2.012,4.628-2.033c0.215,1.395,0.809,2.711,2.376,2.513c2.122-0.268,4.212-0.883,6.272-1.496&#10;&#9;&#9;&#9;&#9;&#9;c0.989-0.294,0.925-1.333,0.96-2.196c3.017,0.17,5.958,0.538,8.062,3.087c0.21,0.862,0.302,1.794,1.276,2.218l-0.049-0.088&#10;&#9;&#9;&#9;&#9;&#9;c-0.194,6.113,0.305,12.179,1.262,18.211c0.387,2.439,0.416,2.442,3.46,2.808C517.46,472.682,518.118,472.671,518.771,472.7z" style="fill:#E8DED6;"/>
				<path d="M783.513,698.591c4.077,0.585,8.218,0.432,12.267,1.557c3.166,0.879,5.452-0.971,5.987-4.294&#10;&#9;&#9;&#9;&#9;&#9;c0.385-2.392,0.232-4.759-0.62-7.07c-0.75-2.037-1.402-4.11-2.097-6.171c3.975,2.958,6.111,6.78,5.428,11.853&#10;&#9;&#9;&#9;&#9;&#9;c-0.184,1.366,0.269,2.538,0.595,3.81c0.653,2.552-0.323,4.322-2.704,5.108c-3.413,1.126-6.901,1.062-10.337,0.101&#10;&#9;&#9;&#9;&#9;&#9;c-3.785-1.059-7.534-2.247-11.298-3.38C781.36,699.049,782.539,699.007,783.513,698.591z" style="fill:#75685E;"/>
				<path d="M512.938,638.446c-0.879,0.616-1.677,1.455-2.651,1.812c-5.644,2.069-8.441,6.513-10.317,11.853&#10;&#9;&#9;&#9;&#9;&#9;c-0.55,1.565-0.502,3.522-2.355,4.42c-1.026-3.117-1.923-6.217-0.283-9.439c1.427-2.802,3.583-4.853,6.271-6.382&#10;&#9;&#9;&#9;&#9;&#9;C506.492,639.067,509.605,638.288,512.938,638.446z" style="fill:#9B8F87;"/>
				<path d="M512.006,675.169c1.059,0.168,2.244,0.086,3.158,0.544c6.419,3.21,13.168,5.571,19.893,8.008&#10;&#9;&#9;&#9;&#9;&#9;c1.199,0.435,2.273,1.218,3.403,1.84c-9.105,0.355-17.259-2.252-24.393-7.925C513.246,676.983,512.687,676,512.006,675.169z" style="fill:#9B8F87;"/>
				<path d="M788.596,676.516c-8.03-1.978-15.306-5.62-22.179-10.123c-0.69-0.452-1.167-1.231-1.743-1.858&#10;&#9;&#9;&#9;&#9;&#9;c1.069,0.145,2.253,0.04,3.188,0.474c6.14,2.853,12.235,5.802,18.321,8.77C787.321,674.334,788.609,674.887,788.596,676.516z" style="fill:#A0948C;"/>
				<path d="M518.771,472.7c-0.653-0.03-1.31-0.018-1.957-0.096c-3.044-0.365-3.073-0.369-3.46-2.808&#10;&#9;&#9;&#9;&#9;&#9;c-0.957-6.032-1.457-12.098-1.262-18.211c2.709,1.237,2.344,3.818,2.517,6.063c0.229,2.984,0.27,5.956,0.986,8.911&#10;&#9;&#9;&#9;&#9;&#9;c0.493,2.032,1.666,3.363,3.116,4.625C518.73,471.689,518.75,472.195,518.771,472.7z" style="fill:#A0948C;"/>
				<path d="M825.521,595.228c6.55,2.55,13.187,2.215,19.863,0.6c-3.363,4.616-8.066,4.94-13.028,3.794&#10;&#9;&#9;&#9;&#9;&#9;c-2.32-0.536-4.492-1.715-6.731-2.602C825.591,596.423,825.556,595.826,825.521,595.228z" style="fill:#75685E;"/>
				<path d="M538.522,654.035c-5.549-4.528-11.088-9.066-17.526-12.343c-0.485-0.247-0.679-1.064-1.008-1.618&#10;&#9;&#9;&#9;&#9;&#9;c7.788,2.377,14.149,7.038,20.014,12.497C539.508,653.059,539.016,653.547,538.522,654.035z" style="fill:#A0948C;"/>
				<path d="M801.664,556.93c0.713-0.914,2.241-0.755,2.678-2.033c5.845,2.03,10.59,5.908,15.593,9.343&#10;&#9;&#9;&#9;&#9;&#9;c0.276,0.189,0.279,0.775,0.409,1.177c-2.42-0.377-4.33-1.813-6.36-3.02C810.097,560.087,806.184,557.819,801.664,556.93z" style="fill:#A0948C;"/>
				<path d="M783.513,698.591c-0.975,0.416-2.154,0.458-2.781,1.513c-4.348-0.809-8.423-2.259-11.922-5.064&#10;&#9;&#9;&#9;&#9;&#9;C773.762,696.018,778.723,696.95,783.513,698.591z" style="fill:#A0948C;"/>
				<path d="M502.803,446.368c-0.035,0.863,0.029,1.902-0.96,2.196c-2.06,0.613-4.15,1.229-6.272,1.496&#10;&#9;&#9;&#9;&#9;&#9;c-1.566,0.198-2.161-1.118-2.376-2.513C496.266,446.094,499.517,446.09,502.803,446.368z" style="fill:#9B8F87;"/>
				<path d="M825.521,595.228c0.035,0.597,0.069,1.195,0.104,1.792c-3.536-0.728-6.333-2.751-8.941-5.104&#10;&#9;&#9;&#9;&#9;&#9;C820.009,592.013,822.977,593.056,825.521,595.228z" style="fill:#A0948C;"/>
				<path d="M800.476,587.017c1.128-0.379,2.671-0.075,2.981-1.805c0.689,0.433,1.386,0.852,2.063,1.301&#10;&#9;&#9;&#9;&#9;&#9;c1.003,0.666,0.615,1.264-0.117,1.833C803.768,587.876,801.841,588.486,800.476,587.017z" style="fill:#E8DED6;"/>
				<path d="M790.932,677.772c-0.815-0.438-1.631-0.877-2.446-1.315&#10;&#9;&#9;&#9;&#9;&#9;C789.574,676.389,790.507,676.608,790.932,677.772z" style="fill:#A0948C;"/>
				<path d="M512.14,451.674c-0.974-0.425-1.066-1.356-1.276-2.218&#10;&#9;&#9;&#9;&#9;&#9;C511.828,449.887,512.213,450.648,512.14,451.674z" style="fill:#A0948C;"/>
				<path d="M480.328,459.571c-0.773,0.616-1.597,1.066-2.638,0.801&#10;&#9;&#9;&#9;&#9;&#9;C478.387,459.503,479.31,459.379,480.328,459.571z" style="fill:#E8DED6;"/>
				<path d="M823.447,566.755c-1.207-0.165-2.449-0.25-3.221-1.409&#10;&#9;&#9;&#9;&#9;&#9;C821.544,565.259,822.567,565.843,823.447,566.755z" style="fill:#A0948C;"/>
				<path d="M546.435,688.49c0.435,0.414,0.87,0.829,1.305,1.243&#10;&#9;&#9;&#9;&#9;&#9;C547.006,689.633,546.549,689.242,546.435,688.49z" style="fill:#E8DED6;"/>
				<path d="M764.792,664.645c-0.453-0.416-0.906-0.832-1.358-1.248&#10;&#9;&#9;&#9;&#9;&#9;C764.108,663.571,764.673,663.865,764.792,664.645z" style="fill:#A0948C;"/>
				<path d="M510.953,673.919c0.392,0.444,0.784,0.888,1.176,1.332&#10;&#9;&#9;&#9;&#9;&#9;C511.512,675.006,511.018,674.652,510.953,673.919z" style="fill:#9B8F87;"/>
				<path d="M845.457,595.767c0.558-0.05,0.779-0.335,0.617-0.886&#10;&#9;&#9;&#9;&#9;&#9;C845.776,595.126,845.57,595.421,845.457,595.767z" style="fill:#75685E;"/>
				<path d="M403.314,546.756c-1.459,0.439-2.865,1.804-4.352,1.245c-3.038-1.143-5.312,0.116-7.968,1.356&#10;&#9;&#9;&#9;&#9;&#9;c-10.213,4.766-20.067,3.676-29.435-2.526c-1.172-0.775-2.016-1.746-2.47-2.984c-0.909-2.475-1.792-4.958-2.024-7.636&#10;&#9;&#9;&#9;&#9;&#9;c-0.208-2.406-0.665-4.789-0.959-7.188c-0.346-2.823-1.577-5-4.269-6.201c-0.398-0.178-0.749-0.462-1.118-0.702&#10;&#9;&#9;&#9;&#9;&#9;c-3.403-2.199-4.4-5.4-3.553-9.177c0.624-2.781,1.163-5.632,2.644-8.137c0.781-1.322,0.583-2.469-0.201-3.678&#10;&#9;&#9;&#9;&#9;&#9;c-1.438-2.217-2.872-4.439-4.219-6.711c-0.549-0.927-1.036-1.955-1.253-2.998c-0.287-1.388,0.269-2.589,1.502-3.394&#10;&#9;&#9;&#9;&#9;&#9;c1.007-0.657,2.115-0.721,3.132-0.178c0.957,0.511,1.825,1.208,2.68,1.889c1.893,1.508,3.822,2.981,5.61,4.607&#10;&#9;&#9;&#9;&#9;&#9;c2.601,2.367,5.293,3.595,8.99,2.544c3.077-0.875,6.188-0.11,8.687,2.023c1.601,1.366,3.092,1.079,4.891,0.574&#10;&#9;&#9;&#9;&#9;&#9;c2.805-0.787,5.41-1.928,7.704-3.673c7.34-5.584,16.047-7.52,24.816-7.922c6.515-0.298,13.055-1.391,19.635-0.684&#10;&#9;&#9;&#9;&#9;&#9;c1.943,0.209,3.968-0.032,5.921-0.307c5.76-0.81,11.339-0.296,16.865,1.576c2.689,0.911,5.506,1.372,8.404,1.577&#10;&#9;&#9;&#9;&#9;&#9;c3.934,0.279,7.847,1.024,11.736,1.743c5.844,1.08,11.686,1.933,17.649,2.223c6.799,0.33,13.54,1.212,20.109,3.343&#10;&#9;&#9;&#9;&#9;&#9;c8.376,2.717,16.961,4.624,25.694,5.941c7.176,1.082,14.227,2.866,21.202,4.91c4.224,1.238,8.453,2.464,12.711,3.572&#10;&#9;&#9;&#9;&#9;&#9;c6.84,1.78,13.309,4.081,19.288,8.198c6.68,4.599,14.075,8.156,21.146,12.19c2.486,1.418,4.982,2.829,7.387,4.378&#10;&#9;&#9;&#9;&#9;&#9;c4.966,3.198,8.453,7.679,10.797,13.047c1.363,3.121,2.014,6.339,0.087,9.502c-0.959,1.574-1.413,3.124-0.915,4.999&#10;&#9;&#9;&#9;&#9;&#9;c1.141,4.29-1.135,7.15-5.304,8.438c-1.038,0.321-2.036,0.769-2.979,1.131c-1.053,1.672,0.34,3.003,0.409,4.478&#10;&#9;&#9;&#9;&#9;&#9;c0.136,2.934-0.918,5.256-3.445,6.643c-1.91,1.049-3.982,1.946-6.092,2.459c-9.508,2.312-19.133,2.892-28.828,1.336&#10;&#9;&#9;&#9;&#9;&#9;c-8.823-1.416-17.633-1.384-26.129,1.433c-8.398,2.784-16.797,3.084-25.399,1.717c-8.038-1.278-16.084-2.507-24.126-3.764&#10;&#9;&#9;&#9;&#9;&#9;c-0.651-0.102-1.315-0.191-1.938-0.393c-3.027-0.979-4.603-3.414-3.825-6.662c2.027-8.462-1.479-14.973-6.992-20.84&#10;&#9;&#9;&#9;&#9;&#9;c-1.049-1.116-2.414-1.966-3.327-3.17c-2.414-3.182-5.683-4.306-9.351-3.541c-6.396,1.334-12.719,0.308-18.976-0.439&#10;&#9;&#9;&#9;&#9;&#9;c-6.817-0.814-13.581-0.165-20.677-0.759c1.134,1.873,2.477,0.934,3.569,1.035c1.529,0.141,3.085-0.016,4.617,0.102&#10;&#9;&#9;&#9;&#9;&#9;c2.064,0.159,3.296,1.365,2.908,2.714c-0.486,1.691-1.929,1.519-3.216,1.549c-1.1,0.025-2.201-0.073-3.302-0.087&#10;&#9;&#9;&#9;&#9;&#9;c-1.853-0.023-3.324,0.461-4.446,2.212c-0.927,1.447-2.322,2.632-3.643,3.78c-2.515,2.184-4.918,4.436-6.208,7.598&#10;&#9;&#9;&#9;&#9;&#9;c-0.894,2.19-2.601,2.795-4.781,2.643c-2.197-0.153-4.403-0.19-6.595-0.387c-9.335-0.838-16.264-7.786-16.872-17.146&#10;&#9;&#9;&#9;&#9;&#9;c-0.199-3.058,0.175-6.154,0.286-9.232c0.15-0.14,0.401-0.26,0.432-0.422c0.105-0.552,0.384-1.294,0.139-1.643&#10;&#9;&#9;&#9;&#9;&#9;c-0.535-0.761-1.071-0.009-1.442,0.369C403.914,545.674,403.647,546.247,403.314,546.756z M431.485,544.184&#10;&#9;&#9;&#9;&#9;&#9;c0.757,2.383-1.712,3.738-2.034,6.041c2.783,1.162,5.472,2.021,8.533,1.424c-0.47-2.003-2.444-2.111-3.159-3.43&#10;&#9;&#9;&#9;&#9;&#9;c-0.705-1.3-1.315-2.652-1.967-3.981c1.167-3.697-0.272-6.814-2.165-9.845c-3.433-5.498-5.847-6.442-11.881-4.592&#10;&#9;&#9;&#9;&#9;&#9;c-0.415,0.127-0.82,0.298-1.24,0.404c-5.964,1.503-9.277,5.301-9.913,11.424c-0.176,0.063-0.374,0.095-0.519,0.201&#10;&#9;&#9;&#9;&#9;&#9;c-0.086,0.062-0.086,0.241-0.125,0.367c0.188-0.217,0.376-0.434,0.564-0.651c2.733-2.563,5.654-4.818,9.14-6.334&#10;&#9;&#9;&#9;&#9;&#9;c6.21-2.701,11.095-0.592,13.508,5.956C430.603,542.191,431.063,543.18,431.485,544.184z M591.14,567.077&#10;&#9;&#9;&#9;&#9;&#9;c-0.761,0.255-1.581,0.781-1.821,1.904c-0.067,0.314,0.178,0.941,0.426,1.033c1.218,0.451,1.953-0.278,2.378-1.298&#10;&#9;&#9;&#9;&#9;&#9;C592.37,568.122,592.149,567.542,591.14,567.077z" style="fill:#EAE0D8;"/>
				<path d="M336.403,421.048c0.126-0.813,0.193-1.918,0.481-2.96c0.673-2.43,2.729-3.664,5.035-2.813&#10;&#9;&#9;&#9;&#9;&#9;c8.144,3.004,15.343,7.498,21.106,14.068c1.751,1.996,1.683,4.104-0.374,5.772c-4.419,3.585-8.994,6.981-13.577,10.357&#10;&#9;&#9;&#9;&#9;&#9;c-0.84,0.619-2.002,0.835-3.043,1.142c-2.293,0.674-3.258,0.301-4.276-1.717c-1.991-3.946-3.152-8.184-3.926-12.496&#10;&#9;&#9;&#9;&#9;&#9;C337.174,428.744,336.887,425.021,336.403,421.048z" style="fill:#E8DED6;"/>
				<path d="M308.068,484.629c-0.083,0.8-0.017,1.283-0.19,1.654c-1.763,3.761-3.53,7.52-5.38,11.239&#10;&#9;&#9;&#9;&#9;&#9;c-0.48,0.965-1.95,1.018-2.887,0.251c-5.922-4.848-11.842-9.698-17.76-14.552c-1.864-1.529-3.764-3.047-4.899-5.235&#10;&#9;&#9;&#9;&#9;&#9;c-0.4-0.771-0.48-1.685,0.065-2.502c0.542-0.813,1.373-1.136,2.262-0.955c8.357,1.705,16.768,3.226,24.674,6.606&#10;&#9;&#9;&#9;&#9;&#9;c0.997,0.426,1.988,0.97,2.814,1.66C307.392,483.318,307.749,484.161,308.068,484.629z" style="fill:#E8DED6;"/>
				<path d="M327.018,515.048c-1.887,0.078-3.542-1.239-3.699-2.944c-0.15-1.635,1.369-3.261,3.215-3.44&#10;&#9;&#9;&#9;&#9;&#9;c1.815-0.176,3.22,1.272,3.178,3.277C329.676,513.661,328.528,514.985,327.018,515.048z" style="fill:#E8DED6;"/>
				<path d="M374.58,481.027c-1.862-0.192-3.034-1.728-2.759-3.615c0.275-1.888,1.912-3.134,3.627-2.762&#10;&#9;&#9;&#9;&#9;&#9;c1.516,0.33,2.651,1.799,2.516,3.259C377.791,479.791,376.261,481.2,374.58,481.027z" style="fill:#E8DED6;"/>
				<path d="M403.314,546.756c0.333-0.509,0.6-1.082,1.017-1.508c0.371-0.378,0.907-1.13,1.442-0.369&#10;&#9;&#9;&#9;&#9;&#9;c0.245,0.348-0.033,1.091-0.139,1.643c-0.031,0.162-0.282,0.283-0.432,0.422C404.574,546.882,403.944,546.819,403.314,546.756z" style="fill:#75685E;"/>
				<path d="M407.66,541.631c0.636-6.123,3.948-9.922,9.913-11.424c0.42-0.106,0.824-0.276,1.24-0.404&#10;&#9;&#9;&#9;&#9;&#9;c6.034-1.85,8.448-0.906,11.881,4.592c1.892,3.031,3.331,6.148,2.165,9.845c-0.458-0.018-0.916-0.037-1.373-0.055&#10;&#9;&#9;&#9;&#9;&#9;c-0.421-1.004-0.882-1.994-1.258-3.014c-2.412-6.547-7.298-8.657-13.508-5.956c-3.486,1.516-6.407,3.771-9.14,6.334&#10;&#9;&#9;&#9;&#9;&#9;L407.66,541.631z" style="fill:#75685E;"/>
				<path d="M431.485,544.184c0.458,0.018,0.915,0.037,1.373,0.055c0.652,1.329,1.262,2.68,1.967,3.981&#10;&#9;&#9;&#9;&#9;&#9;c0.715,1.319,2.689,1.427,3.159,3.43c-3.061,0.596-5.751-0.262-8.533-1.424C429.773,547.922,432.241,546.568,431.485,544.184z" style="fill:#9B8F87;"/>
				<path d="M591.14,567.077c1.009,0.465,1.23,1.045,0.982,1.639c-0.425,1.02-1.16,1.749-2.378,1.298&#10;&#9;&#9;&#9;&#9;&#9;c-0.247-0.091-0.492-0.719-0.426-1.033C589.559,567.858,590.38,567.332,591.14,567.077z" style="fill:#EFC29E;"/>
				<path d="M407.579,541.548c-0.188,0.217-0.376,0.434-0.564,0.651c0.039-0.126,0.04-0.305,0.125-0.367&#10;&#9;&#9;&#9;&#9;&#9;c0.145-0.106,0.343-0.138,0.519-0.201L407.579,541.548z" style="fill:#75685E;"/>
			</g>
			<g>
				<path d="M855.032,589.315c-1.355,0.28-1.314,1.614-1.846,2.496c-1.725,2.86-3.782,5.437-6.428,7.48&#10;&#9;&#9;&#9;&#9;&#9;c-4.312,3.33-9.04,4.229-14.29,2.453c-7.733-2.615-15.397-5.26-21.988-10.377c-3.341-2.593-7.208-4.234-11.698-3.534&#10;&#9;&#9;&#9;&#9;&#9;c-3.342,0.521-6.141-0.88-8.308-3.206c-3.116-3.345-6.992-5.291-11.135-6.878c-7.811-2.992-15.508-6.291-23.541-8.686&#10;&#9;&#9;&#9;&#9;&#9;c-7.841-2.338-15.873-3.62-23.978-4.588c-9.2-1.099-17.923,1.09-26.595,3.655c-3.376,0.999-6.711,2.153-10.016,3.369&#10;&#9;&#9;&#9;&#9;&#9;c-5.486,2.018-11.107,2.678-16.905,2.046c-1.954-0.213-3.925-0.51-5.851,0.093c-0.638,1.783,0.456,3.025,1.292,4.257&#10;&#9;&#9;&#9;&#9;&#9;c4.187,6.169,6.593,12.937,6.849,20.395c0.111,3.245,1.626,5.33,4.477,6.681c2.984,1.414,5.925,2.921,8.875,4.406&#10;&#9;&#9;&#9;&#9;&#9;c3.738,1.881,7.464,3.785,11.201,5.669c15.36,7.746,28.516,18.297,39.655,31.362c4.762,5.586,10.218,10.337,16.317,14.371&#10;&#9;&#9;&#9;&#9;&#9;c4.227,2.795,8.605,5.372,12.728,8.311c4.073,2.904,8.508,4.626,13.445,4.88c5.212,0.267,9.308,2.281,12.202,6.704&#10;&#9;&#9;&#9;&#9;&#9;c1.324,2.024,2.881,3.894,4.245,5.894c2.5,3.667,2.834,7.826,2.375,12.058c-0.357,3.294-2.273,5.289-5.527,5.599&#10;&#9;&#9;&#9;&#9;&#9;c-2.615,0.249-5.312,0.272-7.91-0.073c-5.675-0.752-11.339-1.715-16.769-3.607c-9.986-3.481-19.847-7.258-29.075-12.526&#10;&#9;&#9;&#9;&#9;&#9;c-5.735-3.274-11.414-6.655-17.473-9.34c-4.254-1.885-8.664-3.238-13.184-4.237c-3.038-0.671-6.057-0.474-9.165,0.081&#10;&#9;&#9;&#9;&#9;&#9;c-11.094,1.98-22.2,3.243-33.294-0.337c-2.22-0.716-4.477-1.914-7.044-1.408c-2.052,4.377-4.03,8.781-6.164,13.108&#10;&#9;&#9;&#9;&#9;&#9;c-3.672,7.447-8.913,13.607-15.569,18.573c-10.836,8.085-22.914,12.945-36.39,14.461c-9.866,1.11-18.797-1.318-27.081-6.493&#10;&#9;&#9;&#9;&#9;&#9;c-5.044-3.151-10.165-6.227-14.928-9.772c-12.753-9.493-27.008-15.639-42.271-19.649c-8.574-2.253-15.663-6.894-21.74-13.218&#10;&#9;&#9;&#9;&#9;&#9;c-5.657-5.887-7.226-13.046-5.828-20.804c1.619-8.988,8.621-13.413,17.582-11.467c6.513,1.415,12.668,3.835,18.261,7.458&#10;&#9;&#9;&#9;&#9;&#9;c4.804,3.112,9.453,6.468,14.116,9.792c8.612,6.14,17.192,12.327,25.772,18.512c10.434,7.521,22.43,11.092,34.797,13.626&#10;&#9;&#9;&#9;&#9;&#9;c3.955,0.811,7.896,0.406,11.454-1.923c0.294-0.193,1.349,0.288,1.643,0.728c0.271,0.405,0.225,1.377-0.092,1.747&#10;&#9;&#9;&#9;&#9;&#9;c-0.699,0.815-1.573,1.572-2.526,2.054c-1.777,0.898-3.714,1.458-5.723,1.427c-1.974-0.031-3.976-0.09-5.913-0.433&#10;&#9;&#9;&#9;&#9;&#9;c-14.295-2.529-27.557-7.483-39.264-16.344c-8.608-6.515-17.425-12.755-26.223-19.014c-3.945-2.807-8.008-5.463-12.133-7.998&#10;&#9;&#9;&#9;&#9;&#9;c-4.733-2.91-9.95-4.756-15.364-5.865c-6.631-1.358-11.311,1.827-12.49,8.505c-1.175,6.65,0.198,12.668,5.119,17.651&#10;&#9;&#9;&#9;&#9;&#9;c5.533,5.602,11.9,9.69,19.58,11.762c4.882,1.317,9.736,2.826,14.463,4.615c9.081,3.437,17.808,7.567,25.715,13.362&#10;&#9;&#9;&#9;&#9;&#9;c5.326,3.902,11.015,7.306,16.503,10.989c9.663,6.484,20.068,8.318,31.523,6.015c12.185-2.449,22.954-7.514,32.355-15.559&#10;&#9;&#9;&#9;&#9;&#9;c8.145-6.97,12.608-16.264,16.251-26.053c0.446-1.197,0.047-2.136-1.113-2.706c-1.581-0.777-3.13-1.636-4.761-2.288&#10;&#9;&#9;&#9;&#9;&#9;c-6.159-2.462-12.008-5.499-17.563-9.121c-1.093-0.713-2.289-1.294-3.493-1.804c-0.748-0.316-1.232,0.285-1.3,0.942&#10;&#9;&#9;&#9;&#9;&#9;c-0.066,0.639,0.118,1.311,0.234,1.961c1.544,8.726-1.273,16.53-5.09,24.123c-0.197,0.392-0.41,0.793-0.697,1.118&#10;&#9;&#9;&#9;&#9;&#9;c-0.752,0.853-1.626,1.576-2.85,1.053c-1.41-0.603-1.14-1.779-0.603-2.753c1.815-3.294,3.249-6.749,4.394-10.314&#10;&#9;&#9;&#9;&#9;&#9;c1.803-5.61,2.171-11.24-0.369-16.757c-1.006-2.185-1.908-4.569-4.988-4.581c-0.373-0.002-1.025-0.358-1.075-0.635&#10;&#9;&#9;&#9;&#9;&#9;c-0.707-3.931-3.642-3.072-6.173-2.85c-14.515,1.273-28.464-1.794-42.427-5.179c-13.677-3.315-25.838-9.987-38.009-16.607&#10;&#9;&#9;&#9;&#9;&#9;c-8.149-4.432-16.258-8.816-25.28-11.225c-0.638-0.17-1.309-0.312-1.879-0.623c-6.56-3.588-13.782-4.305-21.035-5.006&#10;&#9;&#9;&#9;&#9;&#9;c-8.129-0.786-16.127-2.377-23.978-4.601c-2.788-0.79-5.541-1.352-8.436-1.353c-6.208-0.002-12.252-1.386-18.211-2.812&#10;&#9;&#9;&#9;&#9;&#9;c-9.857-2.359-19.402-5.756-28.701-9.852c-9.468-4.17-19.337-7.399-28.596-12.069c-1.758-0.886-3.739-1.494-4.943-3.175&#10;&#9;&#9;&#9;&#9;&#9;c-0.296-0.414-0.159-1.263,0.019-1.839c0.086-0.277,0.763-0.589,1.11-0.528c1.062,0.186,2.177,0.38,3.124,0.862&#10;&#9;&#9;&#9;&#9;&#9;c11.999,6.1,24.709,10.527,37.11,15.668c10.58,4.386,21.5,7.959,32.937,9.4c5.011,0.631,10.108,0.558,15.16,0.895&#10;&#9;&#9;&#9;&#9;&#9;c2.78,0.185,5.648-0.195,7.888,2.413c0.836,0.973,2.822,1.104,4.327,1.329c6.534,0.976,13.079,1.888,19.631,2.74&#10;&#9;&#9;&#9;&#9;&#9;c7.026,0.914,13.528,3.395,20.138,5.855c11.021,4.101,20.653,10.86,31.385,15.445c0.404,0.173,0.814,0.345,1.189,0.571&#10;&#9;&#9;&#9;&#9;&#9;c16.636,10.03,35.206,13.491,54.082,15.867c2.171,0.273,4.399,0.167,6.597,0.108c0.531-0.014,1.224-0.415,1.534-0.856&#10;&#9;&#9;&#9;&#9;&#9;c0.521-0.742-0.268-1.174-0.761-1.504c-3.659-2.451-7.374-4.82-11.005-7.313c-1.253-0.861-2.393-1.928-3.417-3.054&#10;&#9;&#9;&#9;&#9;&#9;c-0.309-0.34-0.284-1.356,0.007-1.766c0.287-0.405,1.225-0.74,1.663-0.565c1,0.397,1.892,1.092,2.787,1.723&#10;&#9;&#9;&#9;&#9;&#9;c5.409,3.816,11.037,7.272,16.928,10.295c0.784,0.402,1.699,0.675,2.31,1.262c1.8,1.729,4.887,0.082,6.381,2.605&#10;&#9;&#9;&#9;&#9;&#9;c1.295,2.187,3.809,2.895,5.736,4.314c10.357,7.628,21.783,13.318,33.667,18.093c6.766,2.719,13.815,4.666,21.127,5.009&#10;&#9;&#9;&#9;&#9;&#9;c6.819,0.32,13.61-0.675,20.332-1.724c3.108-0.485,6.064-0.612,9.152-0.096c8.383,1.401,16.02,4.728,23.391,8.779&#10;&#9;&#9;&#9;&#9;&#9;c4.054,2.228,7.992,4.681,12.119,6.758c12.031,6.056,24.365,11.304,37.776,13.566c3.066,0.517,6.127,0.733,9.214,0.604&#10;&#9;&#9;&#9;&#9;&#9;c2.624-0.109,3.426-1.022,3.484-3.726c0.073-3.389-0.583-6.566-2.705-9.323c-0.806-1.047-1.628-2.087-2.356-3.188&#10;&#9;&#9;&#9;&#9;&#9;c-2.739-4.14-6.314-6.412-11.53-6.365c-3.955,0.036-7.626-1.301-11.005-3.733c-4.461-3.211-9.296-5.902-13.958-8.835&#10;&#9;&#9;&#9;&#9;&#9;c-7.137-4.49-13.495-9.859-18.977-16.307c-10.835-12.744-23.688-22.977-38.664-30.489c-5.315-2.666-10.612-5.374-15.99-7.908&#10;&#9;&#9;&#9;&#9;&#9;c-7.539-3.552-13.632-8.854-18.946-15.158c-1.286-1.525-2.603-3.066-2.586-5.194c0.005-0.568,0.409-1.398,0.867-1.621&#10;&#9;&#9;&#9;&#9;&#9;c0.444-0.217,1.351,0.006,1.772,0.366c0.649,0.556,1.07,1.384,1.566,2.112c1.61,2.366,3.684,4.266,5.568,6.24&#10;&#9;&#9;&#9;&#9;&#9;c1.709-0.918,1.124-2.085,1.017-3.017c-0.409-3.546-1.608-6.853-3.355-9.954c-0.757-1.342-1.414-2.829-2.474-3.895&#10;&#9;&#9;&#9;&#9;&#9;c-2.904-2.921-0.97-6.523-1.583-9.748c-0.097-0.51,0.576-1.181,1.325-1.158c2.856,0.088,5.73,0.06,8.562,0.383&#10;&#9;&#9;&#9;&#9;&#9;c2.89,0.33,5.737,0.295,8.547-0.315c6.654-1.445,13.01-3.786,19.923-6.593c-2.786-2.338-6.006-2.435-8.343-4.166&#10;&#9;&#9;&#9;&#9;&#9;c0.003-0.402,0-0.804-0.01-1.206c2.886-0.464,5.696,0.096,8.51,0.627c6.065,1.144,12.168,1.966,18.349,2.13&#10;&#9;&#9;&#9;&#9;&#9;c14.23,0.38,27.955,3.25,41.207,8.419c4.715,1.839,9.384,3.804,14.135,5.547c4.406,1.617,8.443,3.733,11.7,7.196&#10;&#9;&#9;&#9;&#9;&#9;c1.571,1.671,3.434,2.755,5.866,2.37c5.424-0.859,10.049,1.283,14.14,4.365c6.289,4.738,13.479,7.352,20.803,9.772&#10;&#9;&#9;&#9;&#9;&#9;c3.823,1.264,7.385,0.774,10.579-1.748c0.832-0.657,1.91-1.313,1.657-2.582c-0.288-1.445-1.567-2.047-2.771-2.6&#10;&#9;&#9;&#9;&#9;&#9;c-1.135-0.522-2.081,0.031-3.084,0.564c-0.767,0.408-1.753,0.571-2.264-0.463c-0.558-1.127-0.29-2.427,0.753-2.861&#10;&#9;&#9;&#9;&#9;&#9;c2.34-0.973,3.942-2.479,5.151-4.7c0.802-1.473,2.341-1.912,4.022-1.195c0.788,0.336,1.568,0.722,2.391,0.932&#10;&#9;&#9;&#9;&#9;&#9;c0.848,0.216-0.227,0.108,0.396-0.508c0.103-0.102-0.173-0.817-0.444-1.008c-0.321-0.227-0.862-0.341-1.246-0.249&#10;&#9;&#9;&#9;&#9;&#9;c-5.009,1.201-9.142-1.028-12.854-3.764c-10.683-7.877-22.239-14.167-34.063-20.133c-16.72-8.437-33.556-16.565-51.034-23.32&#10;&#9;&#9;&#9;&#9;&#9;c-1.437-0.555-2.834-1.265-4.317-1.645c-10.321-2.646-19.89-7.117-29.207-12.133c-8.074-4.347-16.524-7.145-25.731-7.62&#10;&#9;&#9;&#9;&#9;&#9;c-8.628-0.445-16.979-2.418-25.245-4.839c-8.664-2.538-17.402-4.794-26.271-6.519c-7.794-1.516-15.707-2.031-23.586-2.812&#10;&#9;&#9;&#9;&#9;&#9;c-1.72-0.17-3.512,0.141-5.246,0.398c-2.003,0.297-3.811,0.556-5.48-1.186c-1.094-1.142-2.895-0.824-4.415-0.901&#10;&#9;&#9;&#9;&#9;&#9;c-9.461-0.479-18.936-0.753-28.381-1.44c-9.662-0.702-19.296-1.785-28.937-2.751c-0.831-0.083-1.762-0.36-2.407-0.858&#10;&#9;&#9;&#9;&#9;&#9;c-1.554-1.199-3.286-1.063-5.044-1.035c-9.913,0.161-19.826,0.29-29.738,0.479c-3.555,0.067-7.051-0.176-10.407-1.44&#10;&#9;&#9;&#9;&#9;&#9;c-0.867-0.327-1.528-1.047-1.384-1.977c0.141-0.903,0.84-1.583,1.883-1.372c10.066,2.029,20.209,0.175,30.309,0.585&#10;&#9;&#9;&#9;&#9;&#9;c4.615,0.188,9.252-0.21,13.878-0.191c2.231,0.009,3.251-0.828,3.191-3.085c-0.016-0.589,0.165-1.309,0.972-1.546&#10;&#9;&#9;&#9;&#9;&#9;c1.008-0.296,1.652,0.16,2.179,0.935c3.182,4.674,7.578,7.107,13.244,7.406c7.918,0.418,15.835,0.883,23.743,1.449&#10;&#9;&#9;&#9;&#9;&#9;c14.721,1.053,29.436,2.192,44.153,3.296c0.656,0.049,1.345-0.002,1.962,0.183c10.764,3.239,22.142,3.768,32.808,7.441&#10;&#9;&#9;&#9;&#9;&#9;c2.304,0.793,4.5,1.226,6.711-0.578c0.884-0.722,2.274-0.163,2.374,1.238c0.122,1.707,1.167,2.221,2.523,2.493&#10;&#9;&#9;&#9;&#9;&#9;c3.667,0.736,7.325,1.54,11.018,2.119c3.262,0.511,6.557,0.921,9.852,1.082c6.518,0.317,12.52,2.337,18.308,5.148&#10;&#9;&#9;&#9;&#9;&#9;c5.545,2.693,11.036,5.499,16.589,8.176c5.37,2.589,10.942,4.639,16.796,5.859c0.845,0.176,1.988,0.722,2.502,0.373&#10;&#9;&#9;&#9;&#9;&#9;c2.586-1.754,4.661-0.157,6.789,0.816c5.604,2.561,11.283,4.981,16.086,9.013c1.151,0.966,2.672,1.503,4.048,2.186&#10;&#9;&#9;&#9;&#9;&#9;c13.405,6.659,26.836,13.264,40.215,19.975c6.911,3.466,13.178,7.991,19.454,12.457c3.687,2.624,7.3,4.826,12.122,3.886&#10;&#9;&#9;&#9;&#9;&#9;c3.166-0.617,4.431,2.219,6.267,3.951C855.032,584.024,855.032,586.67,855.032,589.315z M849.797,589.004&#10;&#9;&#9;&#9;&#9;&#9;c-0.372-1.652-1.518-2.414-3.163-2.475c-0.371-0.014-1.075,0.297-1.081,0.475c-0.04,1.269,1.07,1.728,1.905,2.328&#10;&#9;&#9;&#9;&#9;&#9;c0.503,0.361,1.125,0.591,1.727,0.742C849.288,590.099,849.565,589.42,849.797,589.004z" style="fill:#261F1B;"/>
				<path d="M336.628,451.614c-2.299-0.892-4.137-2.127-4.539-4.876c-0.441-3.013-1.275-5.972-1.637-8.991&#10;&#9;&#9;&#9;&#9;&#9;c-0.806-6.714-1.579-13.437-0.863-20.23c0.759-7.203,1.599-9.535,5.622-14.702c0.882,0,1.763,0,2.645,0&#10;&#9;&#9;&#9;&#9;&#9;c0.043,0.215,0.016,0.562,0.139,0.627c5.581,2.945,11.181,5.853,16.765,8.794c2.721,1.433,5.392,2.969,7.523,5.236&#10;&#9;&#9;&#9;&#9;&#9;c0.609,0.648,0.844,1.617,0.052,2.296c-0.434,0.371-1.231,0.627-1.764,0.504c-0.818-0.19-1.564-0.728-2.316-1.16&#10;&#9;&#9;&#9;&#9;&#9;c-5.127-2.951-10.175-6.049-15.389-8.837c-6.605-3.532-7.547-3.261-8.813,4.376c-1.745,10.528-0.478,21.014,1.744,31.353&#10;&#9;&#9;&#9;&#9;&#9;c0.415,1.931,0.662,3.796,0.714,5.73L336.628,451.614z" style="fill:#261F1B;"/>
				<path d="M336.509,451.732c1.052,0.811,1.906,0.012,2.798-0.364c0.953-0.402,1.885-0.864,2.741,0.164&#10;&#9;&#9;&#9;&#9;&#9;l-0.005-0.011c0.887,0.692,0.816,1.622,0.119,2.207c-1.503,1.261-3.134,2.38-4.767,3.475&#10;&#9;&#9;&#9;&#9;&#9;c-7.33,4.915-13.963,10.633-19.85,17.206c-2.492,2.783-4.758,5.737-6.553,9.038c-0.431,0.792-1.254,1.263-2.196,0.792&#10;&#9;&#9;&#9;&#9;&#9;c-0.902-0.451-1.082-1.301-0.871-2.23c0.189-0.832,0.418-1.655,0.75-2.951c-10.122-2.988-19.695-7.409-30.443-7.159&#10;&#9;&#9;&#9;&#9;&#9;c-1.751,0.041-3.504-0.069-5.197,0.595c-1.339,0.525-2.009,1.836-1.533,3.121c0.628,1.694,1.826,2.975,2.983,4.295&#10;&#9;&#9;&#9;&#9;&#9;c4.058,4.633,8.476,8.897,13.142,12.914c1.83,1.575,3.638,3.177,5.407,4.82c2.944,2.734,2.927,2.752,2.864,7.057l0.281-0.04&#10;&#9;&#9;&#9;&#9;&#9;c-1.769-1.814-4.222-2.682-6.013-4.535c-1.976-2.045-4.296-3.755-6.44-5.641c-1.979-1.741-3.974-3.469-5.87-5.298&#10;&#9;&#9;&#9;&#9;&#9;c-1.896-1.829-3.743-3.718-5.49-5.689c-1.452-1.638-2.936-3.31-4.037-5.183c-2.829-4.814-1.18-8.517,4.301-9.884&#10;&#9;&#9;&#9;&#9;&#9;c3.895-0.971,7.859-0.707,11.787-0.221c4.145,0.512,8.214,1.426,12.184,2.758c2.08,0.698,4.166,1.384,6.267,2.015&#10;&#9;&#9;&#9;&#9;&#9;c2.707,0.812,5.532,2.414,8.122,2.11c2.755-0.323,3.986-3.776,5.947-5.794c5.374-5.534,11.129-10.597,17.494-14.969&#10;&#9;&#9;&#9;&#9;&#9;c0.951-0.653,2.604-0.895,2.196-2.712C336.628,451.614,336.509,451.732,336.509,451.732z" style="fill:#261F1B;"/>
				<path d="M428.278,540.125c-0.063-0.635-0.014-1.076-0.157-1.441c-2.181-5.55-6.273-6.73-10.723-2.599&#10;&#9;&#9;&#9;&#9;&#9;c-1.417,1.316-2.56,2.832-5.103,2.195c-1.471-0.369-1.482,1.796-2.06,2.909c-0.365,0.703-0.859,1.637-1.999,1.153&#10;&#9;&#9;&#9;&#9;&#9;c-0.9-0.382-1.385-1.149-1.321-2.074c0.298-4.274,3.607-8.139,7.715-8.462c1.608-0.127,2.926-0.626,4.347-1.142&#10;&#9;&#9;&#9;&#9;&#9;c4.845-1.76,7.761-0.868,10.913,3.277c2.322,3.054,3.712,6.617,4.158,10.303c0.4,3.314,2.112,4.5,4.957,5.114&#10;&#9;&#9;&#9;&#9;&#9;c8.667,1.87,17.457,2.121,26.267,2.058c3.931-0.028,7.839-0.711,11.792,0.275c1.371,0.342,2.991-0.401,4.507-0.531&#10;&#9;&#9;&#9;&#9;&#9;c5.778-0.499,10.147,2.207,13.889,6.246c0.501,0.54,0.301,1.202-0.067,1.787c-0.42,0.668-1.152,0.833-1.715,0.54&#10;&#9;&#9;&#9;&#9;&#9;c-1.154-0.6-2.242-1.35-3.289-2.131c-2.767-2.063-5.787-2.712-9.27-2.614c-8.796,0.246-17.603,0.187-26.404,0.128&#10;&#9;&#9;&#9;&#9;&#9;c-5.743-0.039-11.42-0.781-16.951-2.384c-2.456-0.712-4.61-0.981-6.485,1.418c-1.229,1.573-3.13,2.452-5.208,2.512&#10;&#9;&#9;&#9;&#9;&#9;c-0.578,0.017-1.3-0.331-1.724-0.747c-0.497-0.488-0.417-1.466,0.109-1.747c3.146-1.674,3.026-5.693,5.646-7.729&#10;&#9;&#9;&#9;&#9;&#9;c0.199-0.155,0.176-1.027-0.038-1.197c-0.469-0.373-1.182-0.795-1.697-0.695c-2.211,0.433-4.129,1.387-5.293,3.509&#10;&#9;&#9;&#9;&#9;&#9;c-0.412,0.751-1.12,1.481-2.116,0.884c-1.086-0.652-1.26-1.736-0.891-2.866c0.506-1.549,1.648-2.595,3.032-3.342&#10;&#9;&#9;&#9;&#9;&#9;C424.822,541.801,426.598,540.965,428.278,540.125z" style="fill:#261F1B;"/>
				<path d="M516.945,473.219c-0.812,2.047-1.211,3.556-1.967,4.857c-1.858,3.195-4.522,5.352-8.389,5.496&#10;&#9;&#9;&#9;&#9;&#9;c-0.509,0.019-1.215-0.48-1.52-0.943c-0.4-0.608,0.019-1.333,0.567-1.683c1.291-0.823,2.687-1.48,3.991-2.286&#10;&#9;&#9;&#9;&#9;&#9;c2.144-1.324,2.348-3.553,2.571-5.761c0.082-0.816-0.491-1.14-1.047-1.476c-1.785-1.079-3.722-1.259-5.726-0.879&#10;&#9;&#9;&#9;&#9;&#9;c-1.282,0.243-2.542,0.612-3.83,0.802c-0.317,0.047-0.934-0.323-1.012-0.611c-0.157-0.575-0.285-1.436,0.023-1.799&#10;&#9;&#9;&#9;&#9;&#9;c0.527-0.621,1.35-1.077,2.135-1.376c2.509-0.954,5.185-0.763,7.798-1.022c0.944-0.094,1.548-0.97,1.388-1.895&#10;&#9;&#9;&#9;&#9;&#9;c-0.221-1.284-0.623-2.561-1.129-3.765c-0.662-1.574-2.009-2.273-3.762-1.765c-2.31,0.67-4.543,1.606-6.807,2.435&#10;&#9;&#9;&#9;&#9;&#9;c-0.609,0.223-1.211,0.663-1.812,0.655c-0.551-0.007-1.365-0.355-1.571-0.786c-0.222-0.466-0.085-1.389,0.265-1.793&#10;&#9;&#9;&#9;&#9;&#9;c1.652-1.909,4.064-2.555,6.319-3.357c1.638-0.583,3.429-0.717,5.116-1.184c1.425-0.394,2.208-1.48,2.065-2.948&#10;&#9;&#9;&#9;&#9;&#9;c-0.104-1.067-0.621-2.087-0.81-3.154c-0.163-0.917,0.135-1.757,1.165-2.021c1.031-0.265,1.583,0.442,2.072,1.188&#10;&#9;&#9;&#9;&#9;&#9;c1.28,1.951,1.631,4.065,0.968,6.297c-0.455,1.53-0.514,3.033,0.066,4.515c1.128,2.881,1.992,5.755,1.551,8.953&#10;&#9;&#9;&#9;&#9;&#9;c-0.204,1.479,1.176,2.347,2.941,2.492c7.274,0.599,14.15,2.77,20.88,5.451c0.767,0.306,1.411,1.027,1.98,1.672&#10;&#9;&#9;&#9;&#9;&#9;c0.221,0.25,0.137,0.829,0.087,1.246c-0.096,0.793-0.766,1.147-1.396,1.117c-0.845-0.04-1.72-0.267-2.508-0.593&#10;&#9;&#9;&#9;&#9;&#9;C531.091,476.593,524.235,475.082,516.945,473.219z" style="fill:#261F1B;"/>
				<path d="M466.261,582.578c0.145,0.777-0.791,1.89-1.528,1.724c-2.561-0.578-5.083-1.372-7.668-1.791&#10;&#9;&#9;&#9;&#9;&#9;c-10.436-1.692-20.877-3.363-31.342-4.859c-5.106-0.73-9.663-2.915-14.345-4.788c-2.083-0.833-3.846-2.276-4.773-4.376&#10;&#9;&#9;&#9;&#9;&#9;c-1.596-3.616-3.061-7.292-4.498-10.976c-0.216-0.554-0.142-1.354,0.095-1.914c0.231-0.546,0.794-1.217,1.301-1.302&#10;&#9;&#9;&#9;&#9;&#9;c0.47-0.079,1.347,0.416,1.548,0.875c1.054,2.411,2.105,4.843,2.867,7.356c1.335,4.406,4.305,6.646,8.528,8.36&#10;&#9;&#9;&#9;&#9;&#9;c7.067,2.87,14.431,3.854,21.84,4.9c6.76,0.954,13.527,1.861,20.269,2.932c2.153,0.342,4.267,1.05,6.33,1.783&#10;&#9;&#9;&#9;&#9;&#9;C465.656,580.776,466.285,581.564,466.261,582.578z" style="fill:#261F1B;"/>
				<path d="M357.463,549.696c-4.252,0.839-8.218,1.728-12.223,2.383c-4.053,0.663-7.872-0.335-11.406-2.322&#10;&#9;&#9;&#9;&#9;&#9;c-0.688-0.387-1.154-1.255-1.575-1.986c-0.176-0.305-0.131-1.011,0.098-1.218c0.434-0.391,1.064-0.581,1.636-0.789&#10;&#9;&#9;&#9;&#9;&#9;c0.169-0.062,0.451,0.047,0.625,0.163c5.35,3.549,10.821,2.717,16.382,0.556c6.546-2.543,13.407-4.237,19.759-7.31&#10;&#9;&#9;&#9;&#9;&#9;c0.391-0.189,0.835-0.273,1.257-0.394c1.087-0.311,2.154-0.452,3.014,0.52c0.685,0.774-0.038,2.266-1.68,3.002&#10;&#9;&#9;&#9;&#9;&#9;c-3.004,1.345-6.074,2.543-9.11,3.818c-1.43,0.601-3.037,1.149-2.654,3.186c0.332,1.766-0.587,4.232,2.386,4.679&#10;&#9;&#9;&#9;&#9;&#9;c0.428,0.064,1.016,0.067,1.237,0.337c1.074,1.313,2.634,2.464,2.366,4.413c-0.129,0.94-1.105,1.267-2.018,1.389&#10;&#9;&#9;&#9;&#9;&#9;c-2.02,0.269-3.94,0.399-5.213-1.745C358.756,555.699,358.323,552.623,357.463,549.696z" style="fill:#261F1B;"/>
				<path d="M359.199,523.2c-0.138-0.17-0.24-0.417-0.418-0.499c-1.456-0.676-3.383,1.818-4.459-0.423&#10;&#9;&#9;&#9;&#9;&#9;c-0.826-1.722,1.175-2.575,1.926-3.806c1.608-2.636,3.172-5.26,2.6-8.569c-0.358-2.072-1.341-2.647-3.455-1.896&#10;&#9;&#9;&#9;&#9;&#9;c-2.737,0.973-4.167,0.847-4.592-0.437c-0.577-1.739,0.299-3.026,1.551-3.98c2.257-1.72,4.599-3.333,6.967-4.897&#10;&#9;&#9;&#9;&#9;&#9;c0.964-0.636,2.046-0.673,2.967,0.267c0.684,0.698,0.798,1.571,0.614,2.429c-0.132,0.617-0.616,1.15-0.837,1.759&#10;&#9;&#9;&#9;&#9;&#9;c-1.377,3.784,0.815,6.593,4.799,5.98c1.927-0.297,3.77-1.104,5.688-1.511c0.904-0.192,1.802,0.348,1.929,1.316&#10;&#9;&#9;&#9;&#9;&#9;c0.068,0.517-0.327,1.41-0.763,1.626c-2.536,1.251-5.128,2.83-8.03,2.371c-2.374-0.376-3.031,0.768-3.798,2.527&#10;&#9;&#9;&#9;&#9;&#9;c-0.956,2.192-2.154,4.284-3.323,6.376c-0.443,0.792,0.011,1.112,0.494,1.508L359.199,523.2z" style="fill:#261F1B;"/>
				<path d="M455.134,464.732c-2.414,0-4.83,0.078-7.24-0.017c-4.663-0.184-9.171,0.267-13.493,2.261&#10;&#9;&#9;&#9;&#9;&#9;c-1.768,0.816-3.746,1.22-5.665,1.647c-1.106,0.246-2.181-0.227-3.014-0.995c-0.269-0.248-0.416-0.788-0.375-1.168&#10;&#9;&#9;&#9;&#9;&#9;c0.039-0.371,0.331-0.957,0.613-1.024c8.857-2.107,17.302-5.877,26.905-4.632c6.237,0.809,12.707,0.96,19.042-0.201&#10;&#9;&#9;&#9;&#9;&#9;c0.423-0.078,0.876-0.066,1.306-0.014c0.944,0.115,1.628,0.613,1.782,1.586c0.117,0.739-0.398,1.213-0.977,1.535&#10;&#9;&#9;&#9;&#9;&#9;c-1.776,0.985-3.718,1.296-5.72,1.299c-4.388,0.007-8.776,0.002-13.164,0.002C455.134,464.918,455.134,464.825,455.134,464.732z" style="fill:#261F1B;"/>
				<path d="M408.772,452.739c-0.098,0.642-1.67,1.26-2.146,0.805c-0.623-0.596-1.269-1.199-1.757-1.901&#10;&#9;&#9;&#9;&#9;&#9;c-4.585-6.607-10.279-11.984-17.148-16.218c-3.547-2.186-6.802-4.853-10.128-7.382c-0.731-0.556-0.94-1.578-0.212-2.298&#10;&#9;&#9;&#9;&#9;&#9;c0.394-0.39,1.286-0.69,1.756-0.512c1.42,0.538,2.842,1.188,4.088,2.048c4.531,3.128,9.021,6.318,13.47,9.563&#10;&#9;&#9;&#9;&#9;&#9;c4.893,3.569,8.301,8.456,11.582,13.428C408.746,450.983,409.214,451.796,408.772,452.739z" style="fill:#261F1B;"/>
				<path d="M483.734,461.697c0.618-7.505,1.805-11.953,10.557-14.631c2.491-0.762,5.15-1.029,7.755-1.329&#10;&#9;&#9;&#9;&#9;&#9;c0.927-0.107,1.603,0.794,1.551,1.724c-0.031,0.541-0.527,1.37-0.989,1.516c-1.88,0.596-3.824,0.998-5.752,1.435&#10;&#9;&#9;&#9;&#9;&#9;c-6.966,1.579-10.352,5.013-8.987,14.149c0.256,1.713,0.999,3.367,1.632,5.004c0.432,1.117,0.604,2.151-0.447,2.925&#10;&#9;&#9;&#9;&#9;&#9;c-0.865,0.638-2.366-0.227-3.037-1.762c-0.528-1.206-1.04-2.444-1.337-3.719C484.232,465.087,483.979,463.118,483.734,461.697z" style="fill:#261F1B;"/>
				<path d="M497.859,574.472c-0.167-1.518-0.377-3.034-0.485-4.556c-0.07-0.986,0.493-1.725,1.44-1.853&#10;&#9;&#9;&#9;&#9;&#9;c0.938-0.127,1.734,0.455,1.966,1.36c2.78,10.827,0.475,19.886-8.314,24.496c-2.32,1.217-4.706,2.318-7.113,3.354&#10;&#9;&#9;&#9;&#9;&#9;c-1.014,0.436-2.241,0.458-2.78-0.757c-0.407-0.915,0.288-1.665,1.058-2.139c1.114-0.686,2.225-1.433,3.434-1.903&#10;&#9;&#9;&#9;&#9;&#9;C495.345,589.258,499.146,583.411,497.859,574.472z" style="fill:#261F1B;"/>
				<path d="M464.349,496.544c-3.812-1.122-8.147-1.984-11.856-4.502c-0.518-0.351-0.907-1.083-0.446-1.697&#10;&#9;&#9;&#9;&#9;&#9;c0.353-0.47,1.033-1.069,1.496-1.013c1.284,0.155,2.535,0.606,3.79,0.971c0.848,0.247,1.859,0.576,2.287-0.4&#10;&#9;&#9;&#9;&#9;&#9;c1.094-2.493,2.816-2.238,4.893-1.509c2.275,0.799,4.643,1.331,6.919,2.128c0.506,0.177,1.053,0.948,1.108,1.492&#10;&#9;&#9;&#9;&#9;&#9;c0.05,0.497-0.431,1.38-0.872,1.534c-1.456,0.506-2.753,1.102-3.807,2.306C467.082,496.743,465.873,496.648,464.349,496.544z" style="fill:#261F1B;"/>
				<path d="M419.998,487.184c-0.982,5.969-2.346,12.182-4.896,18.067c-0.329,0.76-0.939,1.507-1.618,1.964&#10;&#9;&#9;&#9;&#9;&#9;c-0.4,0.269-1.237,0.069-1.791-0.144c-0.297-0.114-0.581-0.709-0.569-1.077c0.021-0.631,0.217-1.278,0.446-1.877&#10;&#9;&#9;&#9;&#9;&#9;c2.047-5.36,3.394-10.897,4.283-16.556c0.135-0.86,0.341-1.726,0.655-2.535c0.333-0.858,1.002-1.449,2.002-1.339&#10;&#9;&#9;&#9;&#9;&#9;c1.062,0.117,1.368,0.941,1.48,1.848C420.042,485.966,419.998,486.409,419.998,487.184z" style="fill:#261F1B;"/>
				<path d="M319.384,535.606c-0.067,1.314-1.352,1.91-2.035,1.551c-2.249-1.183-3.242-3.484-4.766-5.308&#10;&#9;&#9;&#9;&#9;&#9;c-1.124-1.345-2.049-2.926-4.292-1.922c-0.375,0.168-1.443-0.345-1.637-0.787c-1.05-2.385-2.011-4.819-2.815-7.296&#10;&#9;&#9;&#9;&#9;&#9;c-0.274-0.842,0.306-1.723,1.233-2.043c1-0.345,1.679,0.323,2.081,1.078c0.718,1.345,1.266,2.779,1.921,4.159&#10;&#9;&#9;&#9;&#9;&#9;c0.373,0.785,0.803,1.857,1.733,1.76c3.367-0.349,4.329,2.457,5.979,4.339c0.86,0.981,1.617,2.069,2.289,3.188&#10;&#9;&#9;&#9;&#9;&#9;C319.381,534.831,319.367,535.531,319.384,535.606z" style="fill:#261F1B;"/>
				<path d="M665.039,584.711c-0.428,0.299-0.771,0.734-1.119,0.738c-0.603,0.007-1.358-0.072-1.792-0.428&#10;&#9;&#9;&#9;&#9;&#9;c-3.546-2.902-7.039-5.868-10.529-8.837c-0.518-0.44-0.807-1.062-0.544-1.755c0.369-0.975,1.193-1.149,2.106-1.015&#10;&#9;&#9;&#9;&#9;&#9;c0.425,0.063,0.89,0.152,1.239,0.379c3.875,2.513,7.266,5.586,10.232,9.113C664.991,583.335,664.919,584.126,665.039,584.711z" style="fill:#261F1B;"/>
				<path d="M416.957,465.607c-0.205-0.082-0.435-0.116-0.585-0.244c-1.58-1.35-0.41-4.136-2.963-5.237&#10;&#9;&#9;&#9;&#9;&#9;c-0.837-0.361,0.055-2.4,0.653-3.571c0.384-0.753,0.652-1.624,1.671-1.793c1.145-0.19,1.523,0.658,1.811,1.457&#10;&#9;&#9;&#9;&#9;&#9;c0.29,0.808,0.565,1.427,1.399,1.957c2.883,1.833,2.888,2.115,1.338,4.721C419.497,464.215,418.773,465.584,416.957,465.607z" style="fill:#261F1B;"/>
				<path d="M483.525,488.19c1.567,0.068,2.921,0.713,3.925,1.929c0.657,0.796,0.362,1.768-0.39,2.241&#10;&#9;&#9;&#9;&#9;&#9;c-0.692,0.436-1.678,0.375-2.47,0.694c-0.956,0.385-1.51,1.618-2.798,1.348c-1.359-0.284-2.245-1.259-3.156-2.183&#10;&#9;&#9;&#9;&#9;&#9;c-0.626-0.636-1.087-1.375-0.803-2.324c0.312-1.042,1.247-1.392,2.021-0.975C481.37,489.737,482.304,488.518,483.525,488.19z" style="fill:#261F1B;"/>
				<path d="M359.056,523.339c3.532-0.714,6.867,0.9,10.343,0.913c0.243,0.001,0.633,0.604,0.685,0.966&#10;&#9;&#9;&#9;&#9;&#9;c0.056,0.388-0.088,0.943-0.358,1.208c-0.444,0.438-1.022,0.889-1.609,1.006c-2.916,0.58-5.693,0.007-8.293-1.362&#10;&#9;&#9;&#9;&#9;&#9;c-1.253-0.66-0.996-1.787-0.628-2.872L359.056,523.339z" style="fill:#261F1B;"/>
				<path d="M296.179,504.661l-0.281,0.04c0.212,0.057,0.461,0.058,0.63,0.175&#10;&#9;&#9;&#9;&#9;&#9;c2.715,1.881,2.793,5.249,4.313,7.813c0.426,0.719-0.393,1.615-1.196,2.076c-0.892,0.512-1.881,0.286-2.328-0.455&#10;&#9;&#9;&#9;&#9;&#9;c-1.577-2.615-2.76-5.418-2.565-8.556C294.777,505.361,295.682,505.023,296.179,504.661z" style="fill:#261F1B;"/>
				<path d="M373.28,567.69c-0.395,0.225-0.898,0.748-1.423,0.77c-2.129,0.088-3.57-1.095-4.529-2.886&#10;&#9;&#9;&#9;&#9;&#9;c-0.16-0.298-0.083-0.859,0.102-1.168c0.191-0.319,0.641-0.665,0.988-0.676c1.991-0.063,4.469,1.533,4.974,3.134&#10;&#9;&#9;&#9;&#9;&#9;C373.447,567.04,373.342,567.267,373.28,567.69z" style="fill:#261F1B;"/>
				<path d="M376.524,478.188c-0.087,1.474-1.182,2.592-2.479,2.529c-1.038-0.05-1.913-1.188-1.797-2.337&#10;&#9;&#9;&#9;&#9;&#9;c0.145-1.436,1.311-2.691,2.483-2.53C376.032,476.028,376.501,476.966,376.524,478.188z" style="fill:#261F1B;"/>
				<path d="M342.043,451.52l0.005,0.011c0.44-0.95,0.783-1.963,1.346-2.834&#10;&#9;&#9;&#9;&#9;&#9;c0.639-0.989,1.672-1.186,2.795-0.861c0.699,0.202,1.03,0.72,1.024,1.389c-0.003,0.383-0.126,0.868-0.379,1.13&#10;&#9;&#9;&#9;&#9;&#9;C345.499,451.738,343.675,451.257,342.043,451.52z" style="fill:#261F1B;"/>
				<path d="M326.51,510.02c1.219,0.088,2.312,1.377,2.141,2.656c-0.122,0.913-0.694,1.49-1.677,1.536&#10;&#9;&#9;&#9;&#9;&#9;c-1.497,0.069-2.485-0.807-2.47-2.188C324.514,511.002,325.566,509.952,326.51,510.02z" style="fill:#261F1B;"/>
				<path d="M308.602,497.389c-0.333,1.007-1.166,1.232-2.04,1.065c-1.169-0.223-1.946-0.963-1.714-2.253&#10;&#9;&#9;&#9;&#9;&#9;c0.195-1.086,1.13-1.223,2.002-1.072C308.048,495.336,308.692,496.105,308.602,497.389z" style="fill:#261F1B;"/>
				<path d="M698.953,557.573c0.01,0.402,0.013,0.804,0.01,1.206c-0.753-0.211-1.512-0.402-2.252-0.652&#10;&#9;&#9;&#9;&#9;&#9;c-0.141-0.048-0.32-0.446-0.285-0.481c0.245-0.238,0.561-0.612,0.817-0.585C697.824,557.122,698.384,557.389,698.953,557.573z" style="fill:#261F1B;"/>
			</g>
		</g>
	</g>
</g>
</svg>