<?xml version="1.0" standalone="no"?>
<!DOCTYPE svg PUBLIC "-//W3C//DTD SVG 20010904//EN"
 "http://www.w3.org/TR/2001/REC-SVG-20010904/DTD/svg10.dtd">
<svg version="1.0" xmlns="http://www.w3.org/2000/svg"
 width="512.000000pt" height="512.000000pt" viewBox="0 0 512.000000 512.000000"
 preserveAspectRatio="xMidYMid meet">

<g transform="translate(0.000000,512.000000) scale(0.100000,-0.100000)"
fill="#000000" stroke="none">
<path d="M2932 4290 c-62 -13 -141 -56 -191 -103 -53 -51 -142 -184 -202 -301
l-44 -86 -66 0 c-207 0 -524 -39 -651 -80 l-97 -31 -59 44 c-81 60 -201 120
-313 158 -77 27 -110 33 -184 33 -80 1 -95 -2 -136 -26 -51 -30 -90 -81 -114
-147 -33 -95 -14 -182 81 -353 35 -64 73 -141 84 -172 l19 -56 -29 -64 c-71
-157 -96 -361 -66 -536 33 -190 138 -437 253 -599 59 -81 178 -201 248 -247
64 -43 68 -19 -44 -242 -136 -272 -184 -405 -197 -547 -6 -65 -4 -75 15 -94
26 -26 52 -27 80 -3 16 13 23 37 31 107 16 129 55 234 176 477 58 117 107 214
108 215 1 1 35 -6 76 -17 278 -70 827 -46 1120 50 168 55 357 164 439 253 43
47 23 107 -36 107 -14 0 -53 -25 -96 -61 -45 -38 -113 -81 -182 -115 -177 -86
-329 -122 -604 -144 -348 -27 -584 0 -760 86 -292 144 -556 668 -512 1016 31
237 134 421 322 571 147 118 413 233 592 257 235 31 693 40 827 16 265 -48
495 -221 613 -460 58 -118 78 -202 84 -357 6 -150 -3 -227 -43 -354 -31 -100
-64 -238 -64 -271 0 -29 36 -50 73 -40 15 3 55 43 102 102 104 129 281 329
339 382 74 68 133 80 183 38 24 -21 28 -32 28 -78 0 -107 -62 -179 -278 -321
-152 -101 -254 -246 -264 -380 -7 -84 6 -121 82 -232 108 -159 135 -255 135
-485 0 -159 9 -185 59 -185 25 0 38 7 51 25 16 22 17 43 10 205 -5 110 -14
206 -24 245 -21 83 -76 199 -120 253 -82 101 -95 158 -54 244 28 60 124 162
196 209 122 79 138 91 204 152 86 81 128 160 128 242 0 197 -159 304 -326 220
-58 -28 -168 -132 -282 -264 -23 -27 -42 -45 -42 -40 0 5 7 41 15 79 19 91 19
289 0 400 -32 181 -123 364 -249 501 l-68 75 27 141 c23 118 27 161 23 257 -3
97 -8 125 -29 171 -58 124 -117 163 -259 166 -52 2 -114 -1 -138 -6z m238
-135 c43 -39 63 -95 68 -187 4 -84 -9 -212 -29 -290 l-9 -37 -77 40 c-43 21
-83 39 -90 39 -17 0 -17 6 7 68 30 78 24 127 -19 159 -67 49 -162 -2 -222
-119 l-21 -41 -65 6 c-36 4 -68 9 -70 11 -8 8 64 134 123 219 85 120 161 159
305 154 61 -2 82 -6 99 -22z m-1947 -366 c85 -21 264 -101 307 -136 l24 -21
-44 -22 c-25 -12 -57 -31 -72 -41 -26 -19 -27 -19 -78 8 -33 17 -67 26 -97 26
-40 0 -50 -4 -76 -33 -36 -40 -32 -79 14 -126 l31 -32 -43 -51 c-24 -28 -46
-51 -49 -51 -3 1 -12 15 -21 33 -8 18 -42 82 -74 143 -53 101 -58 117 -59 177
-1 77 20 115 75 134 48 17 70 16 162 -8z"/>
<path d="M2445 2944 c-55 -19 -85 -56 -85 -103 0 -58 31 -81 109 -81 58 0 66
3 97 34 41 41 47 97 13 140 -24 30 -68 34 -134 10z"/>
<path d="M1613 2803 c-52 -18 -93 -64 -93 -104 0 -91 158 -117 224 -38 28 33
32 59 15 108 -19 53 -64 64 -146 34z"/>
<path d="M2083 2626 c-62 -20 -111 -54 -144 -99 -37 -51 -38 -91 -3 -114 25
-16 28 -16 55 0 38 21 37 9 -6 -40 -50 -58 -118 -85 -238 -92 -105 -6 -127
-18 -127 -65 1 -51 42 -70 131 -62 66 7 70 6 108 -24 106 -86 351 -95 483 -17
48 28 122 103 139 141 10 21 20 24 88 30 112 10 151 35 137 89 -10 42 -34 48
-126 36 -153 -21 -320 15 -371 79 -20 26 -20 27 -2 30 10 2 38 -6 62 -16 49
-22 76 -19 97 13 22 33 4 70 -48 96 -54 28 -173 35 -235 15z m238 -332 l40 -7
-23 -24 c-13 -14 -45 -37 -73 -51 -42 -21 -64 -25 -140 -26 -49 -1 -103 2
-118 7 l-28 8 59 54 c32 29 66 69 76 88 l19 34 74 -39 c41 -21 92 -41 114 -44z"/>
<path d="M1635 1405 l-25 -24 0 -251 c0 -237 1 -251 20 -270 24 -24 63 -26 84
-5 24 25 27 65 24 308 -3 227 -3 229 -27 248 -31 25 -47 24 -76 -6z"/>
</g>
</svg>
