<?xml version="1.0" encoding="UTF-8"?>
<!DOCTYPE svg PUBLIC "-//W3C//DTD SVG 1.1//EN" "http://www.w3.org/Graphics/SVG/1.1/DTD/svg11.dtd">
<svg xmlns="http://www.w3.org/2000/svg" version="1.1" width="512px" height="512px" style="shape-rendering:geometricPrecision; text-rendering:geometricPrecision; image-rendering:optimizeQuality; fill-rule:evenodd; clip-rule:evenodd" xmlns:xlink="http://www.w3.org/1999/xlink">
<g><path style="opacity:0.949" fill="#000000" d="M 511.5,50.5 C 511.5,53.5 511.5,56.5 511.5,59.5C 496.535,73.9648 481.701,88.6315 467,103.5C 474.05,118.894 472.717,133.561 463,147.5C 451.167,159.333 439.333,171.167 427.5,183C 413.889,193.135 399.389,194.635 384,187.5C 378.377,192.121 373.044,197.121 368,202.5C 370.383,208.851 371.883,215.518 372.5,222.5C 372.178,231.974 369.011,240.307 363,247.5C 351.5,259 340,270.5 328.5,282C 325.163,284.671 321.496,286.837 317.5,288.5C 316.502,296.807 316.169,305.14 316.5,313.5C 322.842,313.334 329.175,313.5 335.5,314C 336.667,315.167 337.833,316.333 339,317.5C 339.667,364.833 339.667,412.167 339,459.5C 338.167,461.667 336.667,463.167 334.5,464C 281.833,464.667 229.167,464.667 176.5,464C 174.333,463.167 172.833,461.667 172,459.5C 171.333,412.5 171.333,365.5 172,318.5C 172.833,316.333 174.333,314.833 176.5,314C 182.491,313.501 188.491,313.334 194.5,313.5C 194.831,305.14 194.498,296.807 193.5,288.5C 189.504,286.837 185.837,284.671 182.5,282C 171,270.5 159.5,259 148,247.5C 141.989,240.307 138.822,231.974 138.5,222.5C 139.117,215.518 140.617,208.851 143,202.5C 137.956,197.121 132.623,192.121 127,187.5C 111.611,194.635 97.111,193.135 83.5,183C 71.6667,171.167 59.8333,159.333 48,147.5C 38.2831,133.561 36.9497,118.894 44,103.5C 29.2985,88.6315 14.4652,73.9648 -0.5,59.5C -0.5,56.5 -0.5,53.5 -0.5,50.5C 4.09827,45.9143 9.09827,45.4143 14.5,49C 28.6806,63.3474 43.0139,77.5141 57.5,91.5C 71.6636,84.3125 85.3302,85.1459 98.5,94C 113.396,108.227 127.563,123.061 141,138.5C 146.086,150.613 145.586,162.446 139.5,174C 145.043,179.879 150.877,185.379 157,190.5C 169.526,184.368 182.026,184.535 194.5,191C 206.638,202.137 218.471,213.637 230,225.5C 247,217.5 264,217.5 281,225.5C 291.833,214.667 302.667,203.833 313.5,193C 320.609,188.297 328.442,185.797 337,185.5C 343.307,186.833 349.473,188.333 355.5,190C 360.833,184.667 366.167,179.333 371.5,174C 364.496,160.229 364.996,146.729 373,133.5C 386.167,120.333 399.333,107.167 412.5,94C 425.67,85.1459 439.336,84.3125 453.5,91.5C 467.986,77.5141 482.319,63.3474 496.5,49C 501.902,45.4143 506.902,45.9143 511.5,50.5 Z M 71.5,104.5 C 77.8182,103.664 83.4848,105.164 88.5,109C 101.03,121.196 113.196,133.696 125,146.5C 127.329,151.099 127.662,155.765 126,160.5C 120.802,154.967 115.302,149.8 109.5,145C 99.8334,143.669 96.0001,147.836 98,157.5C 103.167,162.667 108.333,167.833 113.5,173C 108.376,175.07 103.376,174.736 98.5,172C 85,159.833 72.1667,147 60,133.5C 57.6567,128.398 56.99,123.064 58,117.5C 63.8644,123.699 70.0311,129.532 76.5,135C 83.3704,136.304 87.3704,133.471 88.5,126.5C 87.7643,124.459 86.9309,122.459 86,120.5C 80.568,115.575 75.7347,110.242 71.5,104.5 Z M 430.5,104.5 C 433.572,104.183 436.572,104.516 439.5,105.5C 434.848,110.652 430.015,115.652 425,120.5C 424.069,122.459 423.236,124.459 422.5,126.5C 424.324,134.382 428.991,136.882 436.5,134C 442,128.5 447.5,123 453,117.5C 454.713,125.067 453.047,131.734 448,137.5C 437.5,148 427,158.5 416.5,169C 410.961,174.278 404.627,175.611 397.5,173C 402.667,167.833 407.833,162.667 413,157.5C 415,147.836 411.167,143.669 401.5,145C 395.698,149.8 390.198,154.967 385,160.5C 383.338,155.765 383.671,151.099 386,146.5C 398.137,133.362 410.637,120.529 423.5,108C 425.925,106.787 428.259,105.621 430.5,104.5 Z M 171.5,203.5 C 176.901,202.966 181.901,204.133 186.5,207C 195.833,216.333 205.167,225.667 214.5,235C 204.775,244.61 198.275,256.11 195,269.5C 181.936,257.105 169.603,244.105 158,230.5C 156.372,226.219 156.205,221.886 157.5,217.5C 163.017,222.851 168.684,228.018 174.5,233C 185.283,233.212 188.449,228.378 184,218.5C 179.5,214 175,209.5 170.5,205C 171.056,204.617 171.389,204.117 171.5,203.5 Z M 331.5,203.5 C 334.722,203.108 337.722,203.608 340.5,205C 336,209.5 331.5,214 327,218.5C 322.551,228.378 325.717,233.212 336.5,233C 342.316,228.018 347.983,222.851 353.5,217.5C 355.598,224.701 354.098,231.035 349,236.5C 338.319,247.348 327.486,258.014 316.5,268.5C 312.554,255.784 305.887,244.617 296.5,235C 305.833,225.667 315.167,216.333 324.5,207C 326.925,205.787 329.259,204.621 331.5,203.5 Z M 247.5,237.5 C 254.636,237.049 261.636,237.716 268.5,239.5C 268.833,240 269.167,240.5 269.5,241C 262.922,267.338 272.756,284.171 299,291.5C 299.5,298.826 299.666,306.159 299.5,313.5C 270.5,313.5 241.5,313.5 212.5,313.5C 212.5,305.833 212.5,298.167 212.5,290.5C 224.176,289.246 233.009,283.58 239,273.5C 244.52,262.891 245.353,252.057 241.5,241C 243.223,239.251 245.223,238.084 247.5,237.5 Z M 224.5,250.5 C 227.383,260.418 223.883,267.751 214,272.5C 213.95,268.302 214.95,264.302 217,260.5C 219.266,256.958 221.766,253.625 224.5,250.5 Z M 285.5,250.5 C 292.63,256.125 296.463,263.458 297,272.5C 287.57,267.97 283.736,260.636 285.5,250.5 Z M 188.5,330.5 C 233.167,330.5 277.833,330.5 322.5,330.5C 322.5,369.5 322.5,408.5 322.5,447.5C 277.833,447.5 233.167,447.5 188.5,447.5C 188.5,408.5 188.5,369.5 188.5,330.5 Z"/></g>
<g><path style="opacity:0.575" fill="#000000" d="M 420.5,297.5 C 422.337,297.639 422.67,298.306 421.5,299.5C 420.702,299.043 420.369,298.376 420.5,297.5 Z"/></g>
<g><path style="opacity:0.952" fill="#000000" d="M 251.5,346.5 C 270.577,346.244 281.243,355.578 283.5,374.5C 282.537,386.95 276.37,395.617 265,400.5C 264.667,408.5 264.333,416.5 264,424.5C 261.51,431.16 257.01,432.993 250.5,430C 248.513,428.681 247.346,426.848 247,424.5C 246.667,416.5 246.333,408.5 246,400.5C 227.13,389.989 223.13,375.322 234,356.5C 238.961,351.442 244.795,348.108 251.5,346.5 Z"/></g>
</svg>
