<?xml version="1.0" standalone="no"?>
<!DOCTYPE svg PUBLIC "-//W3C//DTD SVG 20010904//EN"
 "http://www.w3.org/TR/2001/REC-SVG-20010904/DTD/svg10.dtd">
<svg version="1.0" xmlns="http://www.w3.org/2000/svg"
 width="512.000000pt" height="512.000000pt" viewBox="0 0 512.000000 512.000000"
 preserveAspectRatio="xMidYMid meet">

<g transform="translate(0.000000,512.000000) scale(0.100000,-0.100000)"
fill="#000000" stroke="none">
<path d="M2845 4304 c-102 -36 -244 -188 -326 -347 -28 -54 -56 -100 -62 -102
-7 -2 -100 -11 -207 -20 -217 -17 -390 -49 -543 -98 l-102 -33 -90 92 c-105
107 -192 166 -288 196 -230 70 -428 -104 -427 -375 0 -102 55 -268 131 -401
l39 -68 -24 -62 c-58 -144 -70 -211 -70 -376 0 -175 16 -262 76 -406 67 -156
200 -324 338 -425 56 -41 60 -46 54 -74 -19 -89 -55 -138 -215 -296 -136 -133
-159 -160 -159 -186 0 -38 31 -68 62 -60 13 4 96 77 184 164 175 173 206 217
243 353 32 113 31 113 -51 167 -249 164 -398 418 -415 708 -14 238 80 487 253
674 185 198 465 324 844 376 177 25 737 32 856 11 118 -20 186 -47 259 -101
185 -137 298 -383 312 -680 7 -149 -8 -269 -50 -395 -39 -117 -163 -366 -241
-482 -63 -94 -66 -113 -26 -156 11 -12 30 -22 42 -22 13 0 62 39 127 99 166
154 318 271 561 432 207 137 270 169 270 137 0 -7 -43 -53 -97 -103 l-96 -92
21 -104 c34 -165 36 -192 18 -228 -23 -43 -63 -60 -164 -72 -123 -14 -192 -35
-248 -78 -93 -70 -192 -219 -209 -316 -4 -21 -8 -107 -10 -190 -6 -220 -34
-332 -110 -435 -19 -26 -35 -59 -35 -72 0 -30 28 -58 58 -58 44 0 142 164 177
295 11 39 19 129 24 255 7 192 8 196 39 261 39 81 137 179 198 196 21 6 82 17
134 23 245 30 304 122 250 385 -23 111 -25 103 56 166 68 52 104 111 104 168
0 118 -99 163 -222 100 -90 -46 -470 -306 -615 -421 -7 -6 8 33 33 87 90 194
134 373 134 550 0 99 -23 265 -50 364 -56 204 -189 398 -335 490 l-63 40 -6
58 c-13 129 -39 269 -58 320 -54 146 -163 210 -283 167z m130 -138 c42 -45 85
-203 85 -317 l0 -35 -57 11 -58 12 -6 56 c-10 92 -44 126 -114 113 -39 -8 -92
-62 -101 -104 -11 -52 -11 -52 -69 -52 l-56 0 37 70 c69 132 218 280 282 280
15 0 37 -13 57 -34z m-1719 -316 c71 -35 241 -187 225 -203 -5 -5 -31 -21 -57
-36 l-47 -28 -56 34 c-105 63 -179 67 -225 12 -37 -44 -35 -107 5 -188 l31
-62 -25 -27 c-13 -15 -32 -39 -42 -54 -9 -16 -21 -28 -25 -28 -14 0 -80 157
-101 240 -26 102 -21 180 16 256 60 123 161 151 301 84z"/>
<path d="M2943 3495 c-62 -27 -77 -81 -33 -120 26 -24 133 -25 176 -2 52 27
60 83 18 116 -32 25 -111 28 -161 6z"/>
<path d="M2185 3299 c-87 -46 -123 -102 -99 -157 15 -37 44 -47 119 -39 152
16 240 138 142 197 -43 26 -111 26 -162 -1z"/>
<path d="M2664 3236 c-106 -47 -170 -181 -103 -217 33 -17 67 -3 87 38 21 44
35 44 44 1 27 -127 -116 -218 -344 -218 -89 0 -98 -2 -112 -22 -22 -30 -20
-51 5 -74 18 -16 39 -19 131 -21 l110 -2 67 -64 c85 -83 155 -118 243 -125 59
-4 74 -1 130 25 110 52 186 149 210 268 10 53 12 55 58 70 89 30 122 83 79
126 -23 23 -30 22 -124 -11 -97 -36 -206 -18 -272 43 -29 26 -29 35 1 30 28
-6 66 27 66 56 0 28 -36 67 -83 90 -50 24 -145 28 -193 7z m261 -344 c22 -6
52 -14 68 -17 33 -7 34 -24 6 -85 -49 -109 -154 -164 -246 -129 -32 12 -133
86 -133 97 0 5 15 13 34 20 44 16 117 81 141 125 l19 35 35 -18 c20 -10 54
-23 76 -28z"/>
<path d="M2640 2088 c-193 -65 -497 -226 -670 -355 -57 -42 -65 -53 -68 -85
-3 -30 1 -40 23 -54 25 -16 26 -16 153 69 159 106 276 172 417 236 224 100
371 138 363 94 -2 -11 -47 -41 -121 -78 -64 -33 -124 -67 -133 -76 -24 -25
-29 -98 -10 -162 17 -58 20 -95 10 -122 -19 -48 -141 -59 -275 -24 -123 32
-146 25 -287 -79 -250 -187 -310 -222 -373 -224 -110 -3 -149 227 -78 454 20
63 21 69 5 93 -20 30 -65 34 -88 8 -47 -55 -86 -289 -68 -415 26 -184 137
-291 266 -259 88 22 170 72 388 233 135 101 138 101 261 62 94 -30 164 -29
241 5 119 53 157 130 122 252 -29 105 -25 112 95 168 56 27 112 59 124 72 67
73 53 172 -30 210 -65 29 -126 24 -267 -23z"/>
</g>
</svg>
