<?xml version="1.0" encoding="iso-8859-1"?>
<!-- Uploaded to: SVG Repo, www.svgrepo.com, Generator: SVG Repo Mixer Tools -->
<svg fill="#000000" height="800px" width="800px" version="1.1" id="Layer_1" xmlns="http://www.w3.org/2000/svg" xmlns:xlink="http://www.w3.org/1999/xlink" 
	 viewBox="0 0 512.001 512.001" xml:space="preserve">
<g>
	<g>
		<path d="M457.514,137.663c-30.044,0-54.486,24.442-54.486,54.486c0,2.539,0.189,5.035,0.526,7.484l-36.771,7.97l-74.295-89.223
			c11.044-9.978,17.997-24.402,17.997-40.424c0-30.044-24.442-54.486-54.486-54.486s-54.486,24.442-54.486,54.486
			c0,16.021,6.953,30.445,17.997,40.424l-74.294,89.224l-36.771-7.97c0.338-2.448,0.526-4.944,0.526-7.484
			c0-30.044-24.442-54.486-54.486-54.486S0,162.105,0,192.148c0,30.042,24.442,54.484,54.486,54.484c0.383,0,0.76-0.022,1.141-0.028
			L84.59,395.938c0.004,0.022,0.01,0.041,0.015,0.063v79.692c0,7.089,5.748,12.839,12.839,12.839h317.114
			c7.091,0,12.839-5.749,12.839-12.839v-79.692c0.004-0.022,0.01-0.041,0.015-0.063l28.963-149.334
			c0.381,0.008,0.759,0.028,1.141,0.028c30.044,0,54.486-24.442,54.486-54.484C512,162.105,487.558,137.663,457.514,137.663z
			 M255.999,49.146c15.885,0,28.809,12.923,28.809,28.809c0,11.729-7.05,21.836-17.131,26.326c-0.236,0.105-0.471,0.209-0.71,0.308
			c-0.23,0.095-0.464,0.186-0.696,0.275c-0.223,0.085-0.447,0.168-0.671,0.248c-0.254,0.09-0.508,0.177-0.765,0.259
			c-0.203,0.065-0.406,0.128-0.61,0.189c-0.277,0.082-0.556,0.163-0.837,0.237c-0.186,0.05-0.374,0.095-0.56,0.14
			c-0.295,0.072-0.591,0.143-0.89,0.205c-0.182,0.039-0.366,0.071-0.549,0.107c-0.302,0.056-0.603,0.114-0.909,0.162
			c-0.198,0.031-0.398,0.054-0.597,0.081c-0.29,0.039-0.58,0.081-0.873,0.11c-0.257,0.027-0.516,0.044-0.774,0.063
			c-0.239,0.019-0.475,0.042-0.715,0.054c-0.505,0.027-1.012,0.041-1.521,0.041s-1.016-0.014-1.521-0.041
			c-0.24-0.013-0.476-0.036-0.715-0.054c-0.258-0.019-0.517-0.036-0.774-0.063c-0.293-0.03-0.583-0.072-0.873-0.11
			c-0.199-0.027-0.398-0.051-0.597-0.081c-0.306-0.047-0.607-0.105-0.909-0.162c-0.184-0.035-0.367-0.068-0.549-0.107
			c-0.299-0.063-0.594-0.134-0.89-0.205c-0.187-0.046-0.374-0.091-0.56-0.14c-0.281-0.074-0.56-0.155-0.837-0.237
			c-0.204-0.062-0.407-0.123-0.61-0.189c-0.257-0.082-0.512-0.169-0.765-0.259c-0.225-0.08-0.448-0.163-0.671-0.248
			c-0.234-0.09-0.466-0.18-0.696-0.275c-0.238-0.099-0.474-0.203-0.71-0.308c-10.081-4.49-17.131-14.596-17.131-26.326
			C227.191,62.07,240.114,49.146,255.999,49.146z M79.928,205.643c-0.123,0.231-0.252,0.458-0.381,0.686
			c-0.127,0.225-0.253,0.451-0.386,0.671c-0.074,0.125-0.154,0.244-0.231,0.368c-3.039,4.862-7.485,8.752-12.765,11.104
			c-0.204,0.09-0.407,0.185-0.615,0.27c-0.19,0.08-0.384,0.153-0.576,0.227c-0.297,0.116-0.594,0.231-0.896,0.338
			c-0.145,0.051-0.291,0.099-0.437,0.148c-0.357,0.119-0.716,0.234-1.08,0.34c-2.564,0.75-5.272,1.159-8.076,1.159
			c-15.884,0.003-28.807-12.921-28.807-28.806c0-15.885,12.923-28.809,28.809-28.809s28.809,12.923,28.809,28.809
			c0,4.318-0.962,8.413-2.67,12.093c-0.135,0.29-0.275,0.575-0.417,0.859C80.114,205.282,80.023,205.465,79.928,205.643z
			 M401.718,462.856H110.281v-56.522h291.437V462.856z M404.219,380.655H107.781l-27.274-140.63
			c7.25-3.935,13.511-9.472,18.314-16.205l48.561,10.526c4.673,1.009,9.525-0.657,12.586-4.333l82.631-99.236
			c0.288,0.073,0.582,0.123,0.872,0.191c0.656,0.155,1.313,0.306,1.977,0.436c0.402,0.078,0.804,0.146,1.208,0.216
			c0.655,0.113,1.312,0.216,1.975,0.306c0.359,0.049,0.718,0.096,1.077,0.137c0.779,0.09,1.564,0.161,2.352,0.217
			c0.247,0.018,0.493,0.042,0.74,0.057c1.06,0.062,2.126,0.101,3.201,0.101s2.141-0.04,3.201-0.101
			c0.247-0.014,0.493-0.039,0.74-0.057c0.788-0.056,1.573-0.127,2.352-0.217c0.361-0.041,0.719-0.089,1.078-0.137
			c0.662-0.09,1.32-0.193,1.973-0.306c0.403-0.069,0.806-0.137,1.208-0.216c0.665-0.131,1.322-0.281,1.977-0.436
			c0.289-0.068,0.584-0.118,0.872-0.191l82.631,99.236c3.061,3.676,7.91,5.343,12.586,4.333l48.561-10.526
			c4.803,6.733,11.064,12.27,18.314,16.205L404.219,380.655z M457.514,220.957c-2.804,0-5.512-0.41-8.076-1.159
			c-0.363-0.107-0.723-0.221-1.08-0.34c-0.145-0.049-0.291-0.098-0.437-0.148c-0.302-0.107-0.6-0.221-0.896-0.338
			c-0.193-0.076-0.386-0.148-0.576-0.227c-0.207-0.086-0.41-0.18-0.615-0.27c-5.281-2.352-9.727-6.242-12.765-11.104
			c-0.077-0.123-0.157-0.244-0.231-0.368c-0.134-0.221-0.259-0.447-0.386-0.671c-0.128-0.227-0.258-0.455-0.381-0.686
			c-0.095-0.18-0.186-0.362-0.279-0.543c-0.144-0.284-0.284-0.57-0.417-0.859c-1.71-3.68-2.67-7.775-2.67-12.093
			c0-15.885,12.923-28.809,28.809-28.809s28.809,12.923,28.809,28.809C486.322,208.036,473.399,220.957,457.514,220.957z"/>
	</g>
</g>
<g>
	<g>
		<path d="M346.532,268.675c-1.537-28.726-24.772-51.23-52.899-51.23c-15.859,0-28.988,8.988-37.538,16.997
			c-8.462-8.015-21.553-16.997-37.731-16.997c-28.126,0-51.361,22.504-52.899,51.232c-0.926,17.346,5.745,29.638,10.845,37.376
			c6.952,10.548,23.871,26.256,37.387,37.439c30.302,25.071,38.762,25.071,42.375,25.071c3.658,0,12.222,0,42.37-25.03
			c13.414-11.138,30.245-26.834,37.256-37.493C340.793,298.289,347.46,285.983,346.532,268.675z M314.244,291.935
			c-8.913,13.552-46.314,44.96-58.142,50.479c-11.928-5.594-49.481-37.029-58.353-50.488c-5.065-7.686-7.052-14.23-6.644-21.877
			c0.795-14.847,13.022-26.926,27.258-26.926c12.24,0,23.62,12.862,26.942,17.773c2.344,3.533,6.283,5.68,10.521,5.738
			c4.275,0.095,8.235-1.982,10.674-5.449c3.297-4.685,15.358-18.06,27.131-18.06c14.237,0,26.466,12.079,27.259,26.928
			C321.307,277.779,319.381,284.122,314.244,291.935z"/>
	</g>
</g>
<g>
	<g>
		<path d="M306.171,421.641H167.52c-7.091,0-12.839,5.749-12.839,12.839s5.748,12.839,12.839,12.839h138.652
			c7.091,0,12.839-5.749,12.839-12.839S313.262,421.641,306.171,421.641z"/>
	</g>
</g>
<g>
	<g>
		<path d="M357.065,431.966c-0.167-0.822-0.411-1.618-0.732-2.401c-0.321-0.77-0.719-1.515-1.181-2.208
			c-0.462-0.706-1.001-1.361-1.592-1.951c-2.979-2.991-7.421-4.354-11.593-3.518c-0.809,0.167-1.618,0.41-2.401,0.731
			c-0.77,0.321-1.515,0.72-2.208,1.182c-0.706,0.474-1.361,1-1.964,1.605c-0.591,0.591-1.117,1.245-1.592,1.951
			c-0.462,0.693-0.86,1.438-1.181,2.208c-0.321,0.783-0.565,1.592-0.732,2.401c-0.167,0.835-0.244,1.683-0.244,2.516
			c0,0.835,0.077,1.683,0.244,2.504c0.167,0.82,0.411,1.63,0.732,2.401c0.321,0.783,0.719,1.527,1.181,2.22
			c0.475,0.707,1.014,1.362,1.605,1.953c2.388,2.388,5.688,3.762,9.077,3.762c3.377,0,6.689-1.372,9.077-3.762
			c0.591-0.591,1.13-1.245,1.592-1.953c0.462-0.693,0.86-1.437,1.181-2.22c0.321-0.772,0.565-1.579,0.732-2.401
			c0.167-0.822,0.257-1.669,0.257-2.504C357.322,433.649,357.232,432.801,357.065,431.966z"/>
	</g>
</g>
</svg>